<?xml version="1.0" encoding="UTF-8"?><svg id="Layer_1" xmlns="http://www.w3.org/2000/svg" viewBox="0 0 500 500"><path d="m222.47,165.22c-9.3.33-18.42-.03-27.46-.66-2.26-.14-4.52-.33-6.77-.53l-6.69-.6-13.21-1.18c-8.79-.73-17.55-1.33-26.28-1.62-8.72-.3-17.42-.29-25.96.32-9.03.65-18.02,1.98-25.95,4.91-1.93.78-3.86,1.57-5.57,2.58-.89.47-1.65,1.04-2.49,1.54-.76.62-1.59,1.14-2.32,1.82-2.99,2.59-5.63,5.74-7.71,9.3-5.61,9.52-7.91,21.27-6.88,32.48.99,11.25,5.57,22,13.19,29.9,7.23,7.91,18.28,12.04,29.8,14.58,11.61,2.46,23.84,3.32,36.11,3.53,12.29.18,24.69-.32,37.1-1.15,12.42-.83,24.85-1.98,37.31-3.26,24.91-2.55,49.89-5.63,75.07-8.03,15.51-1.46,31.1-2.7,46.86-3.17,15.78-.4,31.64-.26,47.95,2.48,1.05.2,2.1.35,3.16.59l3.18.86c2.15.53,4.15,1.27,6.18,1.98l1.52.54,1.49.63,2.97,1.28c1,.4,1.93.96,2.9,1.44.96.5,1.93.98,2.87,1.51,7.5,4.33,14.33,9.95,19.9,16.65,11.15,13.41,17.2,30.82,16.72,48.29-.18,4.37-.68,8.74-1.65,13.04-.22,1.08-.55,2.13-.83,3.2l-.44,1.6c-.16.53-.36,1.05-.53,1.57-.37,1.04-.72,2.09-1.12,3.13l-1.33,3.06c-1.9,4.01-4.12,7.93-6.91,11.44l-1.01,1.34-1.11,1.27c-.75.83-1.48,1.69-2.25,2.5-1.63,1.54-3.19,3.16-4.98,4.52-3.43,2.87-7.31,5.32-11.28,7.24-3.98,1.94-8.1,3.43-12.22,4.58-8.27,2.32-16.54,3.27-24.65,3.72-16.23.8-31.92-.47-47.3-1.33-7.68-.44-15.29-.82-22.78-.83-7.48-.03-14.84.36-21.84,1.5-8.41,1.42-16.28,3.99-22.41,8.57-3.05,2.3-5.68,5.09-7.86,8.32-2.18,3.23-3.89,6.9-5.19,10.81-1.22,3.75-2.17,7.34-2.84,10.71-.73,3.35-1.28,6.48-1.79,9.31-1,5.69-1.89,10.27-2.87,13.85-1.42,5.22-3.27,5.47-5.12,1.05-.46-1.1-.95-2.49-1.32-4.18-.38-1.69-.83-3.64-1.07-5.9-.14-1.13-.27-2.32-.39-3.59-.07-1.27-.13-2.61-.18-4.01-.05-2.81.02-5.9.39-9.26.45-4.24,1.18-8.62,2.52-13.01,1.31-4.38,3.13-8.8,5.65-12.95,2.51-4.15,5.73-8,9.46-11.18,3.72-3.2,7.9-5.73,12.15-7.62,4.9-2.19,9.95-3.65,14.97-4.65,5.02-.99,10.01-1.53,14.94-1.83,9.87-.58,19.53-.25,29.05.25,9.52.51,18.92,1.21,28.23,1.65,9.3.44,18.53.61,27.53-.05,8.98-.67,17.78-2.2,25.58-5.44,3.9-1.62,7.48-3.69,10.67-6.24,3.26-2.51,6.08-5.53,8.45-8.88,4.74-6.68,7.68-14.7,8.45-23.02.42-4.15.35-8.36-.15-12.51-.52-4.16-1.56-8.24-2.97-12.17-3.13-8.68-8.46-16.7-15.35-22.87-3.42-3.11-7.19-5.79-11.17-8.08-4-2.24-8.25-4.01-12.5-5.49l-2.52-.77-1.26-.39c-.43-.11-.89-.19-1.33-.28-.9-.18-1.76-.37-2.7-.53l-2.83-.48c-3.8-.58-7.65-1.07-11.55-1.38-7.79-.68-15.71-.86-23.66-.83-15.92.12-31.97,1.24-48.03,2.66-32.13,2.89-64.34,7.09-96.83,9.52-12.07.89-24.2,1.64-36.41,1.97-12.2.33-24.49.28-36.86-.74-12.34-1.06-24.88-2.93-37.08-7.6-6.09-2.33-12.02-5.51-17.39-9.95-1.24-1.16-2.57-2.25-3.7-3.49l-1.74-1.82-1.62-1.93c-1.12-1.26-2.03-2.68-3.04-4.02l-1.36-2.12c-.46-.7-.9-1.42-1.29-2.16-2.92-5.21-5.11-10.8-6.44-16.55-1.32-5.76-1.9-11.65-1.74-17.51.4-11.69,3.54-23.38,10.07-33.46,1.59-2.53,3.51-4.89,5.56-7.13,2.08-2.22,4.42-4.23,6.93-6.04,2.58-1.76,5.27-3.22,8-4.42,2.73-1.18,5.5-2.12,8.27-2.94,11.11-3.09,22.22-4.01,33.19-4.39,21.94-.6,43.59,1.45,64.91,3.27,5.3.45,10.59.74,15.87.96,5.28.16,10.55.21,15.78.03,5.22-.22,10.4-.65,15.41-1.53,1.27-.18,2.47-.5,3.72-.75,1.22-.28,2.42-.62,3.61-.95,2.34-.75,4.63-1.58,6.71-2.67.83-.43,1.62-.91,2.4-1.39.73-.53,1.51-1,2.16-1.6,1.4-1.1,2.56-2.41,3.6-3.8,2.07-2.8,3.38-6.23,4.27-9.91.84-3.71,1.3-7.62,1.6-11.59.16-2.02.27-3.91.35-5.93.09-2.01.17-4.01.26-5.99.68-15.94,1.62-31.2,2.86-45.59.28-3.31.68-5.75,1.13-7.31.44-1.59.96-2.33,1.52-2.12.55.19,1.18,1.46,1.67,3.49.51,2.07.91,5.01,1.16,8.86.69,10.9,1.2,22.03,1.58,33.29.19,5.64.36,11.27.44,17.03v2.27s-.03,2.21-.03,2.21c-.04,1.48-.08,2.97-.18,4.49-.18,3.04-.48,6.17-1.11,9.4-.54,2.66-1.3,5.4-2.43,8.13-1.1,2.73-2.71,5.41-4.64,7.82-.94,1.23-2.04,2.32-3.14,3.4-1.15,1-2.3,2.02-3.54,2.85-1.21.92-2.49,1.6-3.75,2.36-.64.34-1.28.65-1.92.96-.64.32-1.29.64-1.93.88-5.17,2.19-10.36,3.42-15.43,4.26-5.08.82-10.09,1.28-15.02,1.52-.05.08-.1.15-.17.23Z"/><path d="m285,91.55c-2.08-3.39-4.04-6.85-5.96-10.31-1.03-1.82-2.01-3.68-3.21-5.36l-15.04-21.17,12.98-.54-2.86,5.76c-2.96,5.92-6.02,11.93-9.38,17.91-3.37,5.97-7.03,11.9-11.06,17.58-1.2,1.73-2.92,3.11-4.6,4.43-1.64,1.25-3.91,1.1-6.32.19-3.5-1.34-5.82-4.63-4.97-7.22.54-1.65,1.59-3.1,2.76-4.35,5.35-5.8,9.32-12.67,12.04-20.23.75-2.09,1.32-4.38,2.77-6.04,3.83-4.41,6.08-9.8,9.02-14.89l.19-.33c1.84-3.18,5.9-4.27,9.08-2.43.98.57,1.78,1.37,2.34,2.28.64,1.04,1.26,2.1,1.83,3.19,2.45,4.66,5.37,9.02,7.89,13.52,4.48,8.03,9,15.81,14.23,23.28,2.06,2.99,3.37,6.33,3.1,10.61-.13,1.98-2.7,4.07-4.35,3.26-2.35-1.13-4.47-2.65-6.37-4.34-1.55-1.41-2.67-3.23-3.93-4.91-.06.04-.12.08-.19.12Z"/></svg>