<?xml version="1.0" encoding="UTF-8"?><svg id="Layer_1" xmlns="http://www.w3.org/2000/svg" viewBox="0 0 500 500"><path d="m84.99,166.97c11.26,5.67,22.54,12.52,32.01,22.02,4.62,4.83,8.87,10.04,12.21,15.74,3.41,5.65,6.2,11.57,8.51,17.6,4.75,12.84,7.43,26.08,9.56,39.06.54,3.22,1.03,6.44,1.49,9.65l1.33,9.61-12.73,1.58c-1.96-15.12-3.46-30.67-2.34-46.52.3-3.95.72-7.92,1.38-11.87.67-3.96,1.54-7.91,2.62-11.81,2.23-7.78,5.32-15.39,9.55-22.48,2.09-3.56,4.49-6.97,7.16-10.18,2.68-3.21,5.6-6.25,8.86-8.95.79-.71,1.64-1.33,2.47-1.97.84-.63,1.66-1.3,2.53-1.88,1.74-1.16,3.47-2.36,5.29-3.37,3.59-2.14,7.34-3.89,11.11-5.45,3.79-1.56,7.63-2.8,11.48-3.94,3.85-1.06,7.71-2.04,11.56-2.8,7.7-1.6,15.34-2.67,22.86-3.72l.8,15.43-6.7-.17c-7.28-.21-14.63-.48-22.05-1.06-7.38-.56-15.02-1.47-22.62-3.22-7.6-1.8-15.3-4.42-22.46-8.79-3.56-2.19-6.96-4.8-10-7.84-3.08-3.02-5.66-6.51-7.81-10.05-4.29-7.14-6.92-14.56-9.16-21.67-2.27-7.15-4.15-14.42-5.68-21.77-3.05-14.69-4.58-29.69-4.61-44.7l15.85.75c-1.32,13.56-2.7,27.41-5.59,41.3-2.88,13.85-7.4,27.85-14.96,40.57-7.16,12-17.29,22.16-28.64,29.6-5.43,3.59-10.42,5.69-14.63,6.9-2.14.53-4.04.97-5.81,1.1-.88.08-1.7.13-2.48.14-.19,0-.39,0-.57,0-.16-.02-.31-.05-.46-.07-.32-.05-.63-.11-.94-.16-3.74-.66-5.95-1.36-3.09-4.29.36-.36.8-.74,1.32-1.13.24-.19.59-.41.8-.59.2-.17.41-.35.62-.54.86-.74,1.91-1.46,3.07-2.31,1.15-.87,2.48-1.69,3.88-2.71.71-.48,1.46-.98,2.23-1.5.76-.54,1.56-1.09,2.39-1.65,8.38-5.73,16.74-13.05,23.35-21.15,4.55-5.63,8.44-11.77,11.47-18.47,3.07-6.67,5.42-13.74,7.25-21.01,3.65-14.58,5.17-29.9,6.55-45.38.31-3.48,3.39-6.06,6.87-5.74,3.26.29,5.72,3.01,5.77,6.21v.13c.21,19.95,3.44,39.86,9.62,58.74,2.16,6.59,4.58,13.13,7.63,18.65,1.53,2.77,3.21,5.3,5.07,7.52,1.89,2.18,3.94,4.2,6.21,6,2.08,1.6,4.34,3.05,6.77,4.33,2.46,1.23,5.04,2.34,7.74,3.26,5.42,1.83,11.2,3.06,17.15,3.88,11.97,1.62,24.46,1.98,37.03,2.34,3.76.11,6.72,3.24,6.61,7-.1,3.38-2.65,6.12-5.9,6.55-9.53,1.28-18.9,2.61-27.87,4.74-8.94,2.16-17.55,5.04-25.1,9.45-13.02,7.3-22.33,20.19-27.51,34.75-5.31,14.56-6.43,30.59-5.79,46.64.3,7.76,1.05,15.58,1.94,23.43v.1c.37,3.19-1.92,6.06-5.11,6.42-3.17.36-6.04-1.92-6.42-5.08-1.5-12.62-3.06-25.12-5.87-37.18-1.41-6.02-3.04-11.97-5.2-17.67-2.15-5.7-4.75-11.18-7.88-16.29-.82-1.25-1.58-2.55-2.45-3.76l-2.67-3.59c-1.93-2.27-3.83-4.57-5.99-6.63-4.28-4.17-9.12-7.84-14.29-11.13-2.59-1.64-5.25-3.19-7.97-4.67-1.36-.74-2.74-1.46-4.13-2.16l-2.09-1.05-1.04-.51-.99-.44c-1.29-.62-2.71-1.13-4.09-1.67-1.44-.47-2.84-1-4.31-1.4-2.9-.9-5.9-1.59-8.89-2.24-5.93-1.22-11.87-2.01-17.63-2.29-5.74-.29-11.4.04-16.1,1.65l-1.4-5.49v-.38c0-.17,0-.05,0-.08h.16s.18,0,.18,0c.11,0,.23,0,.4,0l.92-.03c.62-.02,1.25-.05,1.87-.07,1.25-.05,2.5-.1,3.74-.16,2.49-.09,4.94-.18,7.37-.27,4.86-.16,9.61-.24,14.24-.32,2.02-.04,3.58.07,4.74.25.29.04.56.09.8.15.21.08.5.1.76.12.51.06.9.14,1.07.32l.98-1.15c-.14.53-.33.76-.24.81.06.05.41-.1.72-.61.14-.23.07-.54-.16-.68-.23-.14-.54-.07-.68.16-.03.06-.06.12-.07.18l-.29,1.73c-.05.31-.46.82-1.25,1.32-.37.34-1.02.75-1.7,1.1-1.39.71-3.33,1.4-5.86,1.98-4.38,1.02-8.78,1.92-13.26,2.77-2.24.43-4.48.84-6.75,1.23-1.14.19-2.29.38-3.43.57l-1.76.27-.92.13c-.35.05-.87.09-1.3.13-3.72.32-7-2.43-7.32-6.16-.25-2.86,1.33-5.47,3.76-6.66l.46-.22c3.82-1.86,7.55-2.73,11.19-3.36,1.79-.22,3.62-.5,5.37-.57.88-.05,1.78-.12,2.65-.15l2.62-.02c6.99,0,13.84.94,20.62,2.4,3.39.73,6.76,1.64,10.13,2.72l2.53.84,2.54.97c.84.3,1.71.71,2.56,1.08l1.28.57,1.14.55c.07-.05.13-.1.21-.15Z"/><path d="m384.15,196.27c5.86,7.06,10.64,14.99,14.04,23.5.42,1.07.87,2.12,1.26,3.2l1.03,3.29c.33,1.1.71,2.18.99,3.29l.76,3.36c.23,1.12.54,2.23.7,3.37l.47,3.42.23,1.71c.08.56.15,1.13.19,1.76.09,1.23.14,2.5.11,3.83-.06,2.17-.32,4.52-1.15,7.03-.44,1.26-1.03,2.54-1.82,3.79-.82,1.24-1.84,2.4-3.02,3.38l-.09.07c-2.68,2.25-6.67,1.9-8.92-.78-1.19-1.41-1.65-3.22-1.42-4.92.77-5.7,1.87-11.36,3.28-16.95,2.3-9.23,5.79-18.26,10.58-26.7,4.82-8.42,11.04-16.16,18.7-22.55,7.65-6.31,16.54-11.13,26.18-14.02,9.65-2.8,20.14-3.53,30.32-1.43,4.05.83,6.66,4.8,5.82,8.85-.48,2.32-1.98,4.16-3.93,5.16l-.14.07c-3.37,1.7-6.96,2.73-10.44,3.25-3.49.53-6.85.56-10.06.4-3.21-.16-6.27-.54-9.21-.96-2.93-.43-5.72-.85-8.76-1.4-4.07-.76-8.39-1.76-12.77-3.61-2.18-.92-4.36-2.07-6.44-3.48-2.08-1.42-4.02-3.08-5.7-4.87-3.37-3.61-5.85-7.69-7.74-11.79-1.86-4.1-3.21-8.28-4.19-12.37-4.05-16.38-3.75-33.73.88-49.97,1.2-4.23,5.6-6.68,9.83-5.48,2.02.58,3.65,1.9,4.65,3.57,2.61,4.35,3.67,9.26,3.8,13.68.14,4.46-.54,8.58-1.52,12.43-.48,1.95-1.1,3.75-1.69,5.57-.66,1.8-1.31,3.6-2.09,5.34-1.51,3.51-3.26,6.92-5.27,10.15-7.96,12.98-19.61,23.76-33.48,30.34-8.85,4.24-18.7,6.27-28.21,6.49-4.56.12-8.32-.56-11.27-1.59-.74-.26-1.43-.53-2.07-.82-.64-.31-1.23-.63-1.78-.96-1.1-.64-2.01-1.36-2.76-2.11-2.19-2.17-1.72-3.97.49-5.17,2.22-1.17,6.17-1.8,11.54-2.32,6.8-.63,14.1-1.91,20.8-4,6.58-2.01,12.75-5.19,18.29-9.27,5.55-4.09,10.38-9.19,14.34-14.86,3.94-5.69,6.92-12.03,8.81-18.62.91-3.22,1.44-6.45,1.37-9.37-.06-2.93-.74-5.45-1.99-7.33l12.43-1.64c-1.17,4.76-1.98,9.62-2.24,14.5-.56,9.04.67,18.32,2.18,26.88,1.05,6.1,2.92,11.85,5.95,16.27,1.52,2.21,3.29,4,5.35,5.4,2.11,1.4,4.63,2.48,7.45,3.31,2.83.83,5.92,1.42,9.19,1.95,3.31.54,6.6,1.07,9.69,1.39,6.22.67,11.92.41,16.26-1.71l1.56,12.59-2.17-.41-1.08-.21-1.1-.13-2.2-.27-2.22-.11c-4.97-.21-10.05.39-14.98,1.75-4.93,1.36-9.7,3.43-14.16,6.06-4.45,2.63-8.59,5.82-12.26,9.46-3.7,3.66-6.99,7.79-9.85,12.22-7.77,12-12.37,26.21-14.28,40.75l-8.87-4.78c.4-.35.78-.76,1.08-1.56.32-.76.52-1.84.6-3.03.08-1.19.03-2.52-.1-3.88l-.62-4.33c-.14-1.46-.57-2.86-.88-4.3l-.49-2.14c-.15-.72-.43-1.4-.64-2.11-.47-1.39-.86-2.81-1.38-4.19l-1.69-4.09c-2.46-5.36-5.45-10.52-9.06-15.24-3.66-4.68-7.8-9-12.37-12.83-5.92-4.86-12.24-8.87-18.69-12.11-.4-.21-.79-.44-1.2-.64l-1.23-.54c-.82-.37-1.63-.75-2.44-1.11-1.6-.82-3.27-1.37-4.91-2.04-.82-.33-1.64-.66-2.45-.99-.8-.29-1.6-.56-2.4-.76-1.59-.41-3.24-.61-4.87-.05-.39.15-.75.32-1.04.44-.01,0-.02.01-.02.02l-.04.1c-.12.32-.09.71.04,1.02.13.32.33.58.55.8.45.43.99.71,1.6.8.61.1,1.23-.06,1.68-.2.44-.15.76-.25.94-.12.18.11.24.46,0,1.04-.26.56-.99,1.38-2.1,1.8-1.09.41-2.36.51-3.78.01-.71-.27-1.51-.7-2.29-1.6-.2-.24-.38-.48-.55-.78-.17-.31-.33-.63-.46-.98-.26-.73-.37-1.53-.31-2.35.05-.8.34-1.52.8-2.11l.65-.85c.84-1.09,2.23-2.17,3.85-2.8,2.18-.86,4.17-1.02,5.92-1.03,1.76,0,3.34.18,4.69.4,1.41.22,2.83.44,4.25.67l1.07.18,1.05.26,2.1.54c5.66,1.35,11.08,3.68,16.3,6.35,8.52,4.56,16.05,11.18,22.41,18.51.07-.03.14-.05.23-.08Z"/><path d="m252.24,347.34l4.47,2.51,4.3,2.79,1.07.7,1.03.77,2.05,1.54c.68.52,1.37,1.02,2.04,1.56l1.94,1.68c2.64,2.18,5.02,4.66,7.4,7.12l3.35,3.89c1.1,1.31,2.06,2.72,3.1,4.08,3.97,5.55,7.33,11.49,10.01,17.71,2.61,6.25,4.58,12.73,5.89,19.34.3,1.76.66,3.51.89,5.29l.59,5.33.27,5.36c.09,1.79-.02,3.58-.03,5.37-.23,7.15-1.24,14.29-3.02,21.23l-1.39,4.89c-.95,3.33-4.42,5.26-7.74,4.31-2.75-.78-4.55-3.29-4.55-6.01v-.31c0-15.73-.07-31.97,2.93-48.3,1.51-8.16,3.82-16.28,7.23-24.07,3.4-7.77,7.93-15.25,13.83-21.73,5.91-6.51,13.03-11.76,20.54-15.82,7.54-4.03,15.45-7,23.4-9.26,3.98-1.13,7.97-2.09,11.98-2.94,4.01-.84,8.13-1.58,12.38-2.04,4.24-.47,8.63-.66,13.11-.36,4.47.27,9.06,1.12,13.51,2.58,4.02,1.32,6.21,5.65,4.89,9.68-.74,2.26-2.43,3.94-4.49,4.75l-.14.05c-7.06,2.73-14.46,3.78-21.51,3.92-8.07.16-15.78-.78-23.19-1.87-7.42-1.12-14.96-2.47-22.51-4.61-3.77-1.05-7.54-2.33-11.25-3.87-3.71-1.54-7.39-3.32-10.91-5.51-3.51-2.18-6.91-4.65-10.01-7.53-3.13-2.85-5.86-6.05-8.29-9.38-4.88-6.68-8.39-13.94-11.22-21.21-2.78-7.28-4.98-14.63-6.66-22.16-1.68-7.52-2.85-15.15-3.44-22.84-.15-1.92-.27-3.84-.35-5.77-.05-.96-.08-1.93-.1-2.89-.02-.97-.06-1.87-.04-3.06.05-2.27.21-4.78,1.13-7.74.47-1.47,1.18-3.09,2.33-4.68,1.13-1.59,2.77-3.11,4.62-4.12l.04-.02c3.84-2.1,8.67-.69,10.77,3.15.55,1.01.86,2.12.95,3.19,1.2,15.27-.17,30.68-3.92,45.49-3.76,14.81-9.85,29-18.25,41.88-3.87,5.9-8.48,11.54-13.92,16.45-2.72,2.45-5.65,4.71-8.75,6.7-3.1,2-6.43,3.74-9.83,5.12-6.56,2.64-12.51,3.33-17.26,2.92-4.77-.4-8.32-1.79-10.71-3.43-3.48-2.47-2.68-4.25.36-5.18,1.54-.55,3.67-.92,6.33-1.5,2.66-.58,5.84-1.36,9.47-2.56,4.59-1.57,9.18-3.87,13.4-6.85,4.26-2.99,8.22-6.63,11.76-10.59,5.05-5.63,9.35-12.22,13.06-19.12,3.69-6.91,6.77-14.17,9.04-21.68,2.28-7.51,3.92-15.23,4.74-23.03.82-7.8.9-15.67.24-23.47l9.32,4.89c-.05-.12-.16-.2.16.12.03,0,.01.04,0,.04,0,.05-.04.06-.07.14-.13.26-.33.85-.43,1.65-.11.79-.17,1.74-.15,2.78l.12,3.57c.24,4.85.72,9.69,1.43,14.49,1.46,9.59,3.88,19.03,7.24,28.09,2.43,6.53,5.39,12.87,9.01,18.41,1.81,2.77,3.75,5.37,5.86,7.7,1.07,1.15,2.11,2.29,3.27,3.31.58.51,1.12,1.06,1.71,1.55.6.49,1.19.99,1.78,1.48,5.07,4.01,11.13,7.12,17.7,9.41,6.55,2.33,13.59,3.88,20.77,5.14,7.25,1.22,14.48,2.28,21.41,2.44,6.93.16,13.62-.61,19.57-2.88l.24,12.8c-12.45-4.24-27.89-1.09-42.47,2.49-7.85,2.03-15.43,4.8-22.31,8.58-6.89,3.78-13.01,8.58-17.88,14.55-4.91,5.96-8.71,12.95-11.53,20.39-2.84,7.46-4.67,15.33-5.84,23.42-1.82,12.6-2.03,25.64-2.22,38.86l-11.07-1.82c7.13-20.89,4.69-45.02-5.94-64.63-.69-1.21-1.31-2.47-2.07-3.64l-2.27-3.51c-.77-1.16-1.66-2.24-2.48-3.36-.43-.55-.82-1.13-1.27-1.66l-1.37-1.57c-1.76-2.16-3.8-4.07-5.76-6.04-2.12-1.81-4.18-3.71-6.47-5.31-1.12-.84-2.23-1.69-3.43-2.42-1.18-.75-2.34-1.54-3.55-2.26l-3.69-2.04c-1.22-.7-2.53-1.22-3.79-1.84-5.11-2.32-10.44-4.27-15.94-5.49-13.56-3.2-27.27-3.24-39.87-.82l-.14-5.43c8.06,2.45,16.37,3.2,24.43,2.57,4.68-.4,7.17-.21,7.22.98.03,1.09-2.51,3.27-8.28,4.79-8.03,2.06-16.79,2.46-25.44.89-3.57-.65-5.94-4.07-5.29-7.65.45-2.46,2.21-4.35,4.43-5.07l.52-.17c8.3-2.69,17.13-4.02,25.93-4.04,7.15-.07,14.39.93,21.41,2.74,7.03,1.81,13.86,4.43,20.32,7.71.07-.05.14-.09.22-.14Z"/></svg>