<?xml version="1.0" encoding="UTF-8"?><svg id="Layer_1" xmlns="http://www.w3.org/2000/svg" viewBox="0 0 500 500"><path d="m277.95,94.15l-4.11-.62-4.13-.48-2.06-.24-2.07-.17-4.14-.33c-5.53-.27-11.07-.45-16.59-.19-11.06.35-22.06,1.92-32.79,4.56-10.77,2.56-21.11,6.58-31.11,11.41l-3.71,1.88c-1.23.64-2.5,1.22-3.68,1.95l-7.21,4.2-6.98,4.59c-2.3,1.57-4.5,3.29-6.75,4.93-18.79,14.37-34.89,32.61-46.74,53.17-7.83,13.74-14.13,28.39-18.03,43.67l-1.45,5.73-1.14,5.79-.56,2.9c-.21.96-.28,1.94-.43,2.91l-.79,5.84c-.27,1.94-.33,3.91-.5,5.86l-.22,2.93c-.03.49-.08.98-.1,1.47l-.02,1.47-.09,5.87-.02,1.47c0,.49.04.98.06,1.47l.14,2.93c.21,7.83,1.44,15.56,2.9,23.2l1.41,5.67.7,2.83.89,2.78,1.78,5.56c.65,1.83,1.43,3.62,2.13,5.43,1.33,3.66,3.15,7.11,4.82,10.62.79,1.78,1.85,3.42,2.79,5.12.98,1.68,1.92,3.38,2.92,5.05l3.26,4.85c1.09,1.61,2.13,3.26,3.38,4.76,2.42,3.06,4.7,6.22,7.36,9.09,5.17,5.85,10.75,11.35,16.76,16.36,6.02,5,12.39,9.57,19.05,13.68,1.69.99,3.34,2.05,5.05,3l5.15,2.81,5.26,2.6c1.74.89,3.57,1.6,5.35,2.42,7.18,3.1,14.57,5.7,22.11,7.76,15.08,4.04,30.72,5.83,46.17,5.01,15.43-.92,30.61-4.57,44.43-11.1,8.49-4.04,16.42-9.23,23.59-15.26,7.14-6.04,13.38-13.16,18.75-20.9,10.68-15.56,17.59-33.79,20.35-52.55,2.76-18.76,1.32-38.15-5-55.8-6.35-17.78-16.86-34.3-30.29-47.57-6.72-6.62-14.19-12.45-22.29-17.02-8.09-4.58-16.8-7.91-25.78-9.64-8.98-1.72-18.18-1.76-27.16-.21-1.13.13-2.24.43-3.34.69l-3.33.77-3.26,1.03c-1.08.35-2.19.64-3.24,1.1-2.11.87-4.27,1.62-6.29,2.69l-3.08,1.5-2.96,1.73c-2.02,1.07-3.84,2.47-5.74,3.73-.97.61-1.81,1.39-2.72,2.08-.89.72-1.8,1.41-2.67,2.15-3.37,3.07-6.67,6.26-9.46,9.87-5.71,7.11-10.18,15.2-13.02,23.91-5.7,17.37-5.24,36.93,1.77,53.67,4.23,10.07,10.69,19.19,19.12,26.12,2.08,1.79,4.19,3.27,6.45,4.64,2.25,1.34,4.58,2.51,6.98,3.39,2.4.89,4.84,1.54,7.29,1.9,1.23.19,2.45.27,3.67.32.6,0,1.23,0,1.81-.02.56-.04,1.12-.05,1.68-.15,4.35-.52,8.4-2.31,11.7-4.42,3.31-2.13,5.91-4.66,7.8-7.19,3.79-5.1,4.7-10.31,4.38-14.69-.25-3.19-.56-5.1.17-5.69.34-.29.88-.22,1.63.24.76.45,1.69,1.32,2.69,2.72,1,1.39,1.99,3.35,2.67,5.92.67,2.56.92,5.74.37,9.23-1.1,6.98-5.62,14.81-13.48,20.5-4.97,3.57-10.9,6.26-17.61,7.02-6.51.7-12.91-.2-18.89-2.16-5.97-1.97-11.46-4.98-16.35-8.64-4.8-3.59-9.09-7.75-12.82-12.25-2.19-2.56-4.1-5.34-5.95-8.13-1.75-2.86-3.44-5.75-4.84-8.79-2.91-6.02-4.97-12.39-6.42-18.85-2.78-12.96-2.76-26.41.02-39.28.65-3.23,1.58-6.39,2.55-9.54,1.07-3.11,2.2-6.21,3.59-9.21.65-1.52,1.42-2.98,2.15-4.45.78-1.45,1.63-2.87,2.44-4.3l1.24-2.14,1.39-2.04c.94-1.35,1.82-2.75,2.83-4.05,3.97-5.27,8.54-10.04,13.47-14.41,5.04-4.23,10.48-7.98,16.25-11.16,5.84-3.04,11.93-5.59,18.27-7.41,1.58-.46,3.2-.79,4.8-1.19l2.41-.56,2.44-.39c1.63-.24,3.25-.57,4.9-.72l4.94-.41c.82-.09,1.65-.1,2.47-.1h2.48s2.48-.02,2.48-.02c.83-.02,1.65.09,2.47.14l4.95.36c1.63.23,3.27.42,4.9.69,6.5,1.1,12.87,2.89,18.98,5.26,12.26,4.73,23.37,11.86,33.18,20.29,9.8,8.47,18.26,18.35,25.38,29.11,7.81,11.92,14.19,25.15,17.98,39.38,3.8,14.17,4.77,28.84,3.48,42.7-.99,11.08-3.36,21.99-6.78,32.53-3.53,10.51-8.13,20.68-14.03,30.12-2.94,4.72-6.14,9.29-9.66,13.62-3.53,4.32-7.34,8.42-11.43,12.25-8.18,7.69-17.43,14.08-27.36,19.2-9.93,5.11-20.52,8.87-31.36,11.27-10.85,2.42-21.96,3.35-32.99,3.17-22.08-.4-43.87-5.54-63.82-14.46-7.44-3.26-14.63-7.1-21.53-11.38-6.9-4.29-13.59-8.95-19.82-14.18-6.26-5.2-12.18-10.82-17.69-16.84l-4-4.63-1-1.16-.93-1.21-1.87-2.43-3.73-4.86-3.4-5.11-1.69-2.56-.85-1.28c-.27-.43-.51-.89-.77-1.33l-3.03-5.35-1.51-2.68-1.32-2.77-2.64-5.55c-.47-.91-.81-1.88-1.19-2.83l-1.13-2.86-1.12-2.86c-.37-.96-.78-1.9-1.06-2.88l-1.85-5.86-.91-2.93-.72-2.98-1.44-5.97c-.44-2-.72-4.03-1.08-6.04l-.51-3.02-.25-1.51-.16-1.52-.63-6.09c-.26-2.03-.3-4.07-.38-6.11l-.23-6.11.14-6.11.07-3.05c0-1.02.15-2.03.22-3.04,2.04-28.98,11.59-57.03,26.36-81.69,14.81-24.67,35-46.07,58.93-62.04,11.96-8,24.89-14.51,38.42-19.48,6.8-2.39,13.75-4.35,20.77-5.9,7.04-1.53,14.17-2.54,21.32-3.2,28.66-2.5,57.66,2.06,84.34,12.23,10.67,4.02,20.76,9.06,30.22,14.71,9.46,5.66,18.21,12.09,26.14,19.06,7.93,6.97,15.1,14.45,21.3,22.31,6.21,7.85,11.55,15.98,16.24,24.09,4.29,7.49,5.35,11.54,4.11,11.58-1.29.08-4.84-3.86-10.78-11.65-8.44-11.01-17.75-21.62-28.32-30.92-5.29-4.67-10.84-9.09-16.62-13.21-5.79-4.1-11.82-7.88-18.01-11.35-20.3-11.43-43.12-19.83-66.48-23.32-.08.07-.15.13-.24.19Z"/><path d="m385.98,166.68c3.36,1.85,6.71,3.71,10.12,5.48,1.81.93,3.62,1.89,5.53,2.56,5.11,1.79,10.28,3.47,15.45,5.19l3.88,1.3,1.94.66.12.04s-.08-.04-.12-.05c-.11-.04-.22-.08-.33-.11-.22-.06-.42-.11-.64-.14-.43-.06-.88-.06-1.42.04-.27.05-.55.14-.85.26-.16.07-.28.12-.48.22-.2.1-.39.23-.58.36-.78.55-1.36,1.31-1.64,1.86-.56,1.14-.44,1.41-.5,1.37-.01-.03-.02-.13-.05-.29l-.11-.94-.24-2.07c-.74-6.77-1.23-13.44-1.84-19.95-.62-6.51-1.39-12.87-2.63-19.02-.39-1.85-.27-3.82-.21-5.77.08-1.87,1.52-3.5,3.68-4.96,3.12-2.13,7.09-2.23,8.79.32,1.02,1.61,1.55,3.55,1.73,5.43.94,8.64,2.09,16.91,4.09,25.06.55,2.25,1.33,4.56,1,6.79-.51,3.56-.38,7.04-.11,10.49l.23,2.57.06.67c.03.32.05.65.07,1.01.02.72.02,1.54-.12,2.53-.15.98-.43,2.22-1.23,3.64-.39.7-.97,1.44-1.65,2.08-.35.32-.73.63-1.12.88-.39.26-.82.5-1.16.65-1.46.67-2.89.9-4.23.86-.67-.02-1.33-.11-1.97-.26-.32-.08-.64-.17-.96-.28-.16-.05-.32-.12-.48-.18-.1-.04-.13-.05-.14-.06l-.07-.04c-4.65-2.34-9.59-4.07-14.36-6.24-8.5-3.86-16.94-7.94-25.34-12.06-3.35-1.65-6.13-4.08-7.78-8.05-.76-1.83.66-4.82,2.47-4.85,2.56-.03,5.07.31,7.47.89,1.97.47,3.75,1.52,5.62,2.3.03-.07.07-.13.1-.2Z"/></svg>