<?xml version="1.0" encoding="UTF-8"?><svg id="Layer_1" xmlns="http://www.w3.org/2000/svg" viewBox="0 0 500 500"><path d="m195.15,169.26c11.93,11.97,23.81,23.99,35.65,36.05l17.74,18.12c5.88,6.02,11.79,11.99,17.76,17.93,12.65,12.59,25.53,25.11,38.65,37.22,17.52,16.17,35.23,32.14,53,48.07l26.68,23.91,13.33,11.98c1.08.97,2.3,2.07,3.44,3.16,1.15,1.1,2.28,2.21,3.39,3.36,2.21,2.29,4.35,4.69,6.38,7.24,2.02,2.56,3.93,5.26,5.65,8.2,1.72,2.93,3.24,6.1,4.34,9.62.57,1.74.96,3.62,1.26,5.53.22,1.95.37,3.94.18,6-.25,4.1-1.68,8.26-3.83,11.71-1.06,1.75-2.32,3.28-3.63,4.71-.66.69-1.36,1.33-2.04,1.99-.75.63-1.48,1.28-2.31,1.87-1.6,1.21-3.45,2.23-5.38,3.07-1.96.83-4.06,1.38-6.17,1.68-4.25.58-8.43-.01-12.06-1.17-3.67-1.15-6.88-2.82-9.82-4.67-5.85-3.74-10.67-8.22-15.03-12.94-1.09-1.18-2.14-2.39-3.18-3.61l-2.92-3.56-5.66-6.94-22.62-27.78-55.61-68.5c-9.22-11.33-18.47-22.32-28.88-31.54-5.19-4.6-10.69-8.69-16.5-12.03-1.46-.81-2.9-1.67-4.41-2.34l-2.24-1.08c-.75-.34-1.52-.63-2.28-.94-3.02-1.32-6.18-2.26-9.49-3.15-6.61-1.75-13.77-2.92-21.24-4.55-3.73-.81-7.56-1.76-11.38-2.99-3.83-1.21-7.53-2.69-11.15-4.3-14.46-6.57-27.05-15.9-38.37-26.08-22.52-20.44-41.33-44.89-55.05-72.04-4.15-8.18-7.72-16.7-10.71-25.41-1.49-4.4-2.93-9.07-3.63-14.24-.34-2.58-.5-5.28-.31-8.05.12-1.41.27-2.74.6-4.23.3-1.48.77-2.9,1.32-4.29,2.14-5.26,6.01-9.42,10.67-11.59,2.32-1.08,4.79-1.61,7.09-1.65,2.33-.02,4.35.42,6.11,1.06,3.52,1.3,5.86,3.22,7.64,4.97,1.78,1.78,2.99,3.5,3.94,5.07,2.65,4.61,1.27,5.91-2.81,4.4-2.04-.69-4.82-2.15-7.98-3.18-1.57-.51-3.19-.81-4.63-.74-1.43.1-2.6.49-3.86,1.43-1.58,1.16-3.03,3.28-3.7,5.68l-.22.9-.15.91c-.08.69-.14,1.4-.15,2.14-.02,1.47.11,3.02.36,4.64.52,3.24,1.54,6.69,2.78,10.23.61,1.77,1.32,3.58,1.98,5.37.34.89.67,1.79,1,2.68.36.88.72,1.76,1.07,2.63,13.04,32.26,33.91,61.52,60.08,84.47,6.54,5.69,13.4,10.94,20.68,15.35,7.27,4.41,14.93,7.99,22.88,10.32,7.97,2.35,16.68,3.52,25.78,5.43,4.54.94,9.2,2.13,13.83,3.74l3.42,1.32,1.71.67,1.66.76,3.31,1.54,3.21,1.72c4.68,2.58,9.2,5.5,13.42,8.74,1.08.79,2.13,1.6,3.14,2.45,1.02.84,2.06,1.67,3.07,2.53,1.98,1.75,3.97,3.48,5.84,5.3,3.81,3.6,7.37,7.35,10.74,11.14,3.39,3.79,6.54,7.65,9.56,11.47,4.73,6.08,9.46,12.16,14.19,18.24,4.76,6.03,9.52,12.07,14.28,18.11,9.57,12.04,19.22,24.04,28.9,36.02,9.68,11.97,19.37,23.95,29.05,35.92l3.57,4.41c1.16,1.39,2.34,2.75,3.55,4.05,2.43,2.62,4.99,5.06,7.66,7.2,2.67,2.12,5.46,3.96,8.24,5.18,2.78,1.22,5.47,1.77,7.82,1.51.88-.11,1.73-.27,2.56-.61.43-.12.83-.37,1.25-.54.4-.25.83-.44,1.23-.74.82-.51,1.6-1.22,2.4-1.97.78-.75,1.44-1.54,2.03-2.34,1.17-1.61,1.83-3.33,2.14-5.19.32-1.85.16-3.92-.35-6.07-1.01-4.33-3.54-8.85-6.59-13.05-3.07-4.23-6.74-8.21-10.67-11.94-16.89-15.44-33.79-30.89-50.66-46.31-30.06-27.66-59.96-55.58-88.94-84.48l-43.13-43.47c-14.41-14.43-28.87-28.81-43.43-43.08-11.62-11.39-22.77-22.58-33.32-33.45-10.53-10.9-20.45-21.48-29.61-31.69-8.44-9.38-5.68-11.35,5.76-2.14,16.1,13.1,32.33,27.5,48.19,42.11,13.03,12.02,25.9,24.88,38.74,37.45.09-.02.17-.04.27-.05Z"/><path d="m235.11,244.92l25.69-22.63,12.86-11.3,6.44-5.64,3.22-2.82.69-.6c-.3.27-.59.59-.83.93-.12.16-.24.36-.33.5-.08.14-.16.28-.24.42-.15.29-.27.6-.36.9-.08.24-.12.41-.17.63-.04.19-.07.45-.08.59-.01.12-.02.25-.03.37,0,.12,0,.26,0,.36v.2c.07.54.12.56.1.52,0-.03-.06-.2-.13-.36-.3-.74-.89-1.84-1.51-2.88-.63-1.06-1.34-2.15-2.06-3.18-.36-.51-.72-1.02-.99-1.36-.57-.77-1.18-1.51-1.66-2.33-1.06-1.59-1.86-3.3-2.59-5.02-2.7-6.98-2.78-14.47-.79-21.29.24-.86.52-1.7.85-2.54.23-.68.85-2.08,1.29-2.84.96-1.71,1.89-3.02,2.84-4.32,1.89-2.54,3.82-4.83,5.77-7.06,3.91-4.44,7.93-8.64,12.01-12.76,8.65-8.73,17.59-17.09,26.71-25.27,9.13-8.17,18.42-16.14,28.08-23.78,4.58-3.6,9.24-7.13,14.23-10.46,2.51-1.66,5.05-3.28,7.95-4.78,1.44-.75,2.97-1.47,4.84-2.1.93-.31,2-.61,3.33-.78.3-.05.77-.06,1.14-.08.4,0,.76-.03,1.32.04.54.07.98.12,1.58.28.64.19,1.28.45,1.87.74l.09.05c2.38,1.19,3.61,3.76,3.21,6.25-.13.79-.28,1.58-.46,2.37-.19.71-.41,1.25-.63,1.88-.11.29-.22.63-.34.89l-.36.78-.73,1.54c-.51.92-1.02,1.88-1.55,2.75-.54.85-1.06,1.74-1.61,2.56-2.18,3.33-4.49,6.36-6.83,9.36-4.69,5.96-9.58,11.6-14.54,17.14-2.48,2.78-4.99,5.51-7.51,8.23-2.52,2.72-5.08,5.38-7.63,8.08-5.06,5.42-10.26,10.66-15.42,15.95l-7.6,7.81c-2.4,2.54-4.68,5.15-6.66,7.79-.96,1.31-1.9,2.64-2.62,3.92-.73,1.26-1.31,2.52-1.57,3.43-.15.46-.16.77-.16.87,0,.12.02-.12-.14-.44-.15-.33-.42-.58-.45-.6-.03-.03.13.09.54.2.21.07.4.11.9.23l.29.07c.08.02.32.09.2.05-.09-.03-.16-.04-.27-.06-.21-.04-.45-.06-.73-.06-.55,0-1.14.17-1.46.33-.33.15-.41.24-.36.2-.12.12,1.37-1.32,1.86-1.73l2.05-1.84,8.18-7.38,16.37-14.75,8.18-7.38,2.08-1.87c.83-.75,1.65-1.43,2.46-2.07,1.63-1.29,3.27-2.46,4.93-3.58,3.34-2.22,6.74-4.22,10.47-6.02,1.89-.89,3.82-1.73,6.13-2.45,1.18-.35,2.4-.68,4.05-.87.83-.08,1.77-.14,2.97-.02,1.22.16,2.86.46,4.73,1.75.92.63,1.82,1.57,2.44,2.58.66,1.04,1,2.04,1.22,2.99.08.42.15.85.19,1.27.04.41.03.71.04,1.07v.52s-.05.43-.05.43l-.1.84c-.35,2.02-.9,3.29-1.42,4.47-1.06,2.31-2.18,4.1-3.32,5.84-2.29,3.43-4.67,6.46-7.1,9.43-2.44,2.95-4.91,5.79-7.45,8.6-2.55,2.81-5.15,5.56-7.78,8.24-5.27,5.36-10.66,10.51-16.03,15.58l-8.02,7.56-3.96,3.77c-.17.16.04-.03.13-.14.1-.12.21-.24.31-.38.19-.27.36-.56.49-.86.27-.61.39-1.26.38-1.91,0-1.27-.69-2.69-1.77-3.5l-.1-.07.09.07.19.15.38.29.67.54,1.03.84c.12.09.27.22.36.28l.26.19c.12.06.23.14.28.15.13.05.17.09.45.12.23.05.67.06,1.18.04,1.05-.05,2.47-.31,3.92-.65l1.13-.31.57-.15c.18-.05.3-.1.45-.14.28-.08.58-.19.89-.32.3-.11.63-.25.95-.39,2.63-1.16,5.51-2.89,8.32-4.8,2.83-1.9,5.64-4.02,8.43-6.21,7.54-5.95,14.91-12.45,22.26-19.05,7.36-6.6,14.66-13.35,22.3-19.99,3.84-3.32,7.72-6.62,12.07-9.83,2.24-1.6,4.44-3.18,7.61-4.72.83-.38,1.69-.76,2.89-1.11,1.1-.31,2.64-.72,4.97-.48.31.04.62.09.93.15l.46.1c.17.04.36.11.54.17.74.26,1.43.53,2.13.97.35.22.7.47,1.02.73.16.13.32.26.48.4.04.02.51.47.95,1.02.87,1.14,1.19,1.97,1.49,2.93.12.44.17.7.23,1.06.05.31.09.75.1.93.04,1.02-.06,1.69-.15,2.23-.04.24-.1.5-.15.72l-.15.57c-.2.68-.41,1.23-.6,1.68-.76,1.81-1.46,3.01-2.16,4.25l-1.8,3.05c.3-.62-.08.18-.22.48-.19.41-.36.72-.54,1.08-.36.69-.72,1.34-1.08,1.95-.72,1.24-1.45,2.39-2.19,3.51-2.95,4.46-6.03,8.55-9.19,12.58-6.33,8.03-12.97,15.67-19.88,23.1-6.92,7.42-14.11,14.6-21.73,21.44-7.65,6.82-15.63,13.36-24.83,19-4.65,2.77-9.56,5.38-15.56,7.06-1.53.39-3.09.75-4.81.93-.83.12-1.73.16-2.63.19-.88.01-1.9-.02-2.75-.1-3.47-.35-6.36-1.18-9.12-2.12-5.46-1.94-10.29-4.41-15.01-7.38-1.18-.74-2.35-1.54-3.52-2.4-.58-.41-1.18-.9-1.77-1.35-.05-.04-.06-.05-.05-.03v.02s.05.03.05.03c.03.01.05.03.07.05.05.03.11.06.16.08.48.18.75.09,1-.08l-9.59,9.85-10.17,10.75c-13.47,14.43-26.58,29.24-39.48,44.26-25.78,30.06-50.81,60.94-76.17,91.62-3.83,4.63-7.68,9.25-11.58,13.84l-5.86,6.88-1.48,1.73-1.86,1.99c-.6.68-1.28,1.28-1.95,1.88-.68.59-1.33,1.23-2.04,1.77-2.82,2.24-5.89,4.15-9.15,5.69-.81.39-1.67.7-2.5,1.04l-1.26.5c-.43.15-.87.27-1.3.4-.88.26-1.74.53-2.62.76l-2.7.53c-3.64.54-7.4.76-11.16.09-3.73-.62-7.46-1.81-10.71-3.81-.39-.23-.79-.45-1.18-.68-.39-.23-.73-.52-1.09-.78-.7-.54-1.39-1.07-2.08-1.6-.67-.54-1.22-1.17-1.82-1.75-.29-.3-.58-.59-.87-.88-.29-.31-.56-.54-.86-.96-2.47-2.95-3.85-6.39-4.35-9.51-.19-.79-.19-1.55-.28-2.31-.03-.38-.06-.75-.09-1.12,0-.36.02-.72.03-1.08.03-.71.03-1.43.11-2.11.1-.67.19-1.33.29-1.98.08-.66.25-1.27.4-1.87.16-.6.32-1.19.47-1.78.4-1.12.78-2.21,1.21-3.23,1.77-4.05,4.02-7.1,6.19-9.54.55-.6,1.07-1.2,1.62-1.73.56-.51,1.1-1.01,1.62-1.49,1.03-.96,2.12-1.71,3.1-2.42.71-.52,1.37-.92,1.98-1.22.6-.31,1.13-.54,1.58-.69.91-.3,1.52-.3,1.87-.03.7.55.31,2.16-.96,4.66-1.18,2.54-3.21,6.06-5.03,10.65-.86,2.29-1.71,4.84-2.11,7.54-.42,2.68-.29,5.5.5,7.78.28.7.59,1.35.98,1.9.14.32.44.5.63.78.13.23.62.59.95.9l1.07.98,1.17.8c.74.61,1.63.94,2.44,1.4l.31.17.33.11.67.23c.45.14.86.38,1.34.45.94.18,1.84.48,2.83.51,1.92.29,3.96.08,5.99-.2,4.07-.78,8.2-2.51,11.72-5.11.86-.68,1.77-1.29,2.54-2.06.4-.37.82-.72,1.21-1.1l1.1-1.19.56-.59.63-.74,1.28-1.52c.86-1.01,1.71-2.02,2.56-3.02,31.37-36.91,61.82-74.57,93.39-111.45,15.82-18.41,31.95-36.6,48.7-54.26l6.32-6.59,1.58-1.65.39-.41.2-.21c.06-.07.12-.12.27-.27.52-.52,1.08-.99,1.68-1.42,2.39-1.71,5.32-2.63,8.29-2.58,1.49.03,2.99.31,4.41.83.71.26,1.41.58,2.06.97.33.19.66.38.96.61l.82.6c.97.76,2.06,1.51,3.17,2.24,2.26,1.45,4.69,2.79,7.15,3.95,4.84,2.28,10.3,4.08,13.5,3.45,1-.14,2.09-.39,3.23-.76,1.13-.35,2.3-.81,3.48-1.33,2.36-1.06,4.75-2.36,7.11-3.82,5.22-3.24,10.33-7.18,15.3-11.37,4.97-4.21,9.81-8.7,14.52-13.32,9.42-9.25,18.37-18.96,26.72-28.53,3.33-3.82,6.57-7.72,9.63-11.68,1.53-1.98,3.01-3.97,4.4-5.97.69-.99,1.35-1.99,1.96-2.96.6-.96,1.16-1.93,1.53-2.68-.07.14.6-1.25.75-1.43l.57-.95.97-1.59c.6-.99,1.17-2.01,1.48-2.68l.14-.31h0s.04.02.21.07l.79.24c.48.15.93.29,1.4.4.88.23,1.71.38,2.35.45.68.06,1.16.05,1.49-.05.06,0,.12-.03.18-.06.06-.04.05-.02.08-.05-.42.43.98-1-.93.96h0s0,.01,0,.01c0,0,0,0,.01,0,.01-.02-.07.1-.08.15-.03.06-.04.12-.05.18,0,.03-.08.24-.09.35-.05.41-.13,1.3.03,2.1.04.53.12,1.05.24,1.55.06.25.14.48.2.84.02.12,0,.04-.01.07-.03,0-.02,0-.07.01l-.18.07c-.1.02-.3.13-.46.19-.71.32-1.64.85-2.56,1.43-.93.58-1.9,1.26-2.87,1.95-1.94,1.41-3.9,2.94-5.85,4.53-7.8,6.4-15.48,13.41-23.25,20.35-7.77,6.96-15.6,13.95-23.88,20.66-4.15,3.35-8.41,6.63-13.02,9.71-2.31,1.54-4.72,3.02-7.35,4.38-1.31.68-2.71,1.33-4.21,1.91-.74.3-1.54.56-2.36.82l-2.15.59c-2.91.69-5.96,1.39-10,1.08-1.99-.16-4.34-.77-6.34-1.87-.52-.26-.93-.55-1.39-.84-.41-.28-.8-.57-1.16-.84l-1.64-1.34c-.23-.19-.39-.31-.55-.44l-.14-.11c-.2-.16-.41-.32-.6-.48-.39-.33-.76-.72-1.1-1.11-1.36-1.61-2.17-3.64-2.31-5.68-.15-2.03.34-4.12,1.41-5.88.26-.45.57-.85.89-1.25.17-.19.34-.38.51-.56l.34-.34.71-.68,5.71-5.38c7.61-7.13,15.2-14.12,22.34-21.37,3.58-3.63,7.02-7.29,10.37-11.11,3.33-3.79,6.58-7.67,9.27-11.52.99-1.42,1.87-2.86,2.47-4.06.13-.28.26-.57.33-.77.06-.13.06-.18.09-.26.02-.04.03-.08.02-.07h0s-.09-.04.23.02c1.57.34,3.04.31,3.74.18.78-.13.88-.45.63-.11-.24.31-.61,1.27-.71,2.64-.04.37-.05.7-.05,1.08-.01.21-.02.42-.02.64,0,.16,0,.06,0,.09h0s-.09,0-.15,0c-.35.04-.99.18-1.67.39-1.38.42-2.95,1.08-4.5,1.82-3.12,1.49-6.26,3.33-9.21,5.32-1.47.99-2.89,2.04-4.18,3.09-.32.26-.63.53-.92.79l-1.07.95-2.17,1.93c-11.54,10.26-23.09,20.54-34.64,30.81l-.45.43c-.24.23-.51.48-.83.75-.65.54-1.47,1.16-2.61,1.69-1.14.53-2.61.9-4.03.88-.7,0-1.38-.09-2-.22l-.87-.21c-1.09-.26-2.61-.7-4.09-1.46-1.49-.76-3.13-1.96-4.4-3.7-1.29-1.72-2-3.9-2.14-5.75-.16-1.87.07-3.49.4-4.91.7-2.82,1.8-4.96,2.93-6.97,2.32-3.92,4.92-7.19,7.63-10.28,1.35-1.54,2.74-3.03,4.13-4.49l4.16-4.22c10.87-10.94,21.71-21.92,32.09-33.19,5.17-5.65,10.28-11.37,15.02-17.23,2.38-2.92,4.66-5.9,6.69-8.88,1.02-1.49,1.94-2.98,2.74-4.42.22-.37.34-.69.52-1.04.15-.33.37-.71.44-.97l.31-.84c.01-.16.05-.31.11-.46l4.8,2.38c-.14.21-.22.44-.25.65-.09.31-.2.77-.2,1.14,0,.1,0,.19,0,.29,0,.1-.02.28-.03.41-.02.28-.02.57,0,.85,0,.13.02.31.03.39h.01s-.02,0-.04,0c-.1.03-.18.01-.4.08l-.28.07-.35.12c-.95.32-2.1.83-3.26,1.43-2.33,1.21-4.73,2.69-7.09,4.25-4.74,3.14-9.41,6.63-14,10.21-9.19,7.2-18.13,14.85-26.89,22.69-8.74,7.86-17.31,15.93-25.55,24.27-4.11,4.17-8.14,8.41-11.92,12.74-1.87,2.17-3.71,4.37-5.28,6.54-.77,1.06-1.52,2.21-1.89,2.99l-.12.25c-.04.09-.1.27-.15.4l-.31.85c-.17.58-.37,1.15-.5,1.74-1.2,4.68-.81,9.79,1.18,13.93.53,1.01,1.09,2,1.79,2.88.1.15.51.65.74.97l.73,1c.47.66.91,1.31,1.35,1.98.87,1.33,1.71,2.69,2.52,4.19.4.75.8,1.54,1.18,2.45.19.45.38.96.55,1.54.17.63.37,1.28.39,2.47-.02.63-.02,1.38-.51,2.55-.13.29-.25.54-.45.84-.21.31-.44.6-.7.87-.36.36-.27.26-.33.32l-.1.09-.83.73-1.67,1.47-3.33,2.94-6.66,5.89-13.3,11.79-53.11,47.29c-16.4,14.67-32.47,28.76-48.04,42.07-15.57,13.32-30.69,25.79-45.08,37.41-6.6,5.36-10.24,7.36-10.58,6.13-.16-.6.52-2,2.1-4.16.79-1.07,1.81-2.35,3.06-3.78,1.26-1.42,2.75-3.02,4.48-4.79,19.64-19.97,40.83-40.12,62.09-60,17.49-16.33,35.92-32.57,53.96-48.79,0-.1,0-.2.01-.31Z"/></svg>