<?xml version="1.0" encoding="UTF-8"?><svg id="Layer_1" xmlns="http://www.w3.org/2000/svg" viewBox="0 0 500 500"><path d="m372.57,314.37c-1.45-1.81-3.22-3.41-5.15-4.87-1.93-1.46-4.05-2.76-6.33-3.83-4.53-2.19-9.59-3.59-14.75-4.26-2.56-.3-5.25-.44-7.94-.42-2.7.03-5.43.22-8.18.52-5.5.62-11.06,1.72-16.68,3.08-5.91,1.45-12.14,3.07-17.83,4.83-5.79,1.82-11.45,4.09-17.37,6.48-3.96,1.58-8.09,3.17-12.5,4.42-4.41,1.24-9.05,2.03-13.67,2.36-4.64.39-9.18.08-13.67-.27l-3.32-.42-1.66-.21c-.29-.04-.52-.06-.86-.12l-1.07-.22c-1.48-.27-2.72-.74-4.02-1.18-1.19-.51-2.43-.99-3.52-1.59-4.49-2.3-8.28-5.19-11.76-8.52-3.46-3.34-6.58-7.14-8.96-12.11l-.8-1.99c-.28-.66-.42-1.4-.63-2.09-.09-.34-.2-.74-.26-1.04l-.18-.87-.35-1.74c-.21-1.18-.33-2.41-.5-3.61-.09-1.2-.17-2.4-.23-3.6-.14-4.78.3-9.45,1.09-13.97,1.64-9.02,4.55-17.51,8.08-25.57,3.55-8.07,7.72-15.75,12.3-23.12,9.16-14.75,19.86-28.32,31.51-40.97,1.79-1.94,3.62-3.88,5.45-5.76l2.75-2.81,2.4-2.61c3.13-3.52,6.09-7.23,8.37-11.16,2.33-3.91,4.18-7.98,5.24-12.09,1.07-4.11,1.35-8.22.72-12.08-1.12-7.77-6.4-14.38-13.75-18.6-7.37-4.27-16.56-6.08-25.79-6.02-1.16.04-2.32-.02-3.48.1l-3.49.25c-2.33.32-4.64.55-7.06,1.07-2.38.42-4.85.98-7.28,1.48-2.43.53-4.92.95-7.26,1.68l-7.12,1.97c-2.34.76-4.66,1.6-6.99,2.39-1.16.42-2.34.77-3.48,1.24l-3.42,1.42-3.42,1.42c-1.14.47-2.29.93-3.38,1.5l-6.66,3.25c-1.13.51-2.18,1.15-3.26,1.75l-3.23,1.82-3.23,1.82c-1.06.63-2.08,1.33-3.12,1.99-2.07,1.35-4.18,2.65-6.21,4.04-8.1,5.67-15.72,12-22.85,18.85-8.48,8.37-16.59,17.34-23.58,26.9-3.47,4.51-6.13,8.36-8.83,11.27-.34.37-.67.72-.99,1.07-.31.35-.61.7-.9,1.03-.59.66-1.18,1.28-1.75,1.85-1.15,1.14-2.26,2.09-3.34,2.88-3.13,2.29-4.85,1.58-4.89-1.78-.02-1.68.37-4.02,1.21-6.96.22-.73.42-1.52.73-2.3.31-.78.65-1.6,1.02-2.44.74-1.69,1.6-3.52,2.59-5.46,5.21-9.69,12.33-19.51,20.08-27.83,17.89-19.11,39.35-34.58,63.02-45.44l9-3.8c3.03-1.19,6.13-2.2,9.19-3.32.77-.27,1.53-.56,2.31-.8l2.35-.68,4.7-1.36c3.13-.99,6.29-1.61,9.44-2.33l4.73-1.06,4.84-.98c1.65-.27,3.34-.5,5.01-.75,1.68-.21,3.38-.33,5.08-.49,6.8-.46,13.76-.22,20.68,1.19,1.9.43,3.83.8,5.73,1.42.95.3,1.92.54,2.86.89l2.83,1.08c3.73,1.59,7.46,3.45,10.82,6.01.87.58,1.67,1.28,2.48,1.97.8.7,1.63,1.35,2.35,2.15.74.77,1.48,1.54,2.2,2.32.66.85,1.32,1.69,1.98,2.54,2.5,3.49,4.47,7.36,5.65,11.4,1.9,6.46,2.01,13.24.9,19.5-1.11,6.29-3.41,12.1-6.3,17.38l-1.08,1.98c-.38.64-.79,1.26-1.19,1.89-.81,1.24-1.56,2.55-2.46,3.7-.87,1.18-1.73,2.38-2.62,3.55l-2.79,3.36c-.9,1.15-1.95,2.16-2.92,3.23-.99,1.05-2.01,2.17-2.92,3.07l-2.81,2.84-2.74,2.87c-7.26,7.7-14.11,15.78-20.45,24.19-6.35,8.41-12.18,17.16-17.32,26.22-3.8,6.73-7.12,13.71-9.65,20.87-2.51,7.14-4.22,14.51-4.4,21.65-.04,1.78.02,3.54.2,5.25.12.86.16,1.7.36,2.58l.25,1.31.06.33.07.24.12.47.11.47.19.47c.14.32.22.63.38.96.35.66.64,1.33,1.1,2.01.79,1.36,1.87,2.7,2.96,4,4.56,5.06,10.81,9.75,16.48,10.46,6.7,1.09,13.32,1.44,19.72.64,6.4-.82,12.67-2.97,19.31-5.56,6.6-2.58,13.57-5.26,20.69-7.32l2.67-.78,2.6-.71,5.24-1.41c3.52-.92,7.07-1.8,10.69-2.58,7.22-1.54,14.7-2.66,22.35-2.7,3.8-.02,7.7.23,11.54.86,3.83.62,7.62,1.61,11.28,2.98,7.31,2.72,14.27,7.01,19.6,13.12,2.66,3.05,4.85,6.52,6.47,10.21.84,1.85,1.47,3.83,1.99,5.82.44,2.02.79,4.07.87,6.12.17,3.27-.14,6.44-.67,9.41-.53,2.98-1.25,5.78-1.98,8.48-1.49,5.39-2.97,10.43-4,15.47-2.14,10.03-2.34,20.05-1.53,29.71.15,2.23.19,3.9-.03,5.05-.21,1.14-.63,1.74-1.2,1.74-.57,0-1.28-.6-2.09-1.84-.83-1.23-1.65-3.14-2.45-5.73-1.04-3.69-1.91-7.52-2.48-11.47-.56-3.95-.8-8.01-.73-12.08.07-4.08.47-8.16,1.09-12.13.61-3.98,1.45-7.82,2.21-11.45.62-2.98,1.21-5.84,1.55-8.5.36-2.67.41-5.1.13-7.41-.28-2.31-.93-4.53-1.97-6.77-1.07-2.29-2.4-4.35-4-6.23-.07.03-.14.05-.23.08Z"/><path d="m407.72,375.77c-2.03,2.35-4.02,4.79-5.94,7.34-1.01,1.36-2.05,2.73-2.83,4.26-2.71,5.34-5.43,10.9-8.49,16.28-1.92,3.38-6.23,4.57-9.61,2.64-.53-.3-1-.65-1.41-1.06l-.61-.6-6.65-6.49c-3.92-3.85-7.84-7.6-11.88-11.18-4.04-3.59-8.23-7-12.61-10.34-1.32-1-2.34-2.46-3.34-3.9-.96-1.38-.69-3.51.23-5.89,1.34-3.47,4.35-6.03,6.76-5.4,1.52.4,2.82,1.35,3.91,2.44,5.04,4.98,10.65,9.24,16.78,13.08,1.69,1.06,3.6,2.04,4.63,3.72,3.29,5.35,8.2,9,11.81,13.85l.57.75-10.23.87c2.45-3.15,4.4-6.64,6.65-9.99,4.29-6.42,8.72-13.17,13.71-19.54,1.99-2.53,4.7-4.34,8.66-4.62,1.82-.13,4.38,1.98,4.15,3.51-.32,2.16-.95,4.16-1.74,6-.65,1.51-1.79,2.73-2.7,4.1.06.05.12.09.18.13Z"/></svg>