<?xml version="1.0" encoding="UTF-8"?><svg id="Layer_1" xmlns="http://www.w3.org/2000/svg" viewBox="0 0 500 500"><path d="m230.48,360.51l3.07-.06,3.08.02,6.15.05,6.14.22,3.07.12,3.07.2,6.13.41,6.12.58,3.06.3,3.05.38,6.09.77c16.21,2.35,32.27,5.76,47.91,10.61,16.62,5.03,32.8,11.64,48.38,19.26l7.75,3.95,7.63,4.18-8.88,8.35c-9.54-18.99-19-38.02-28.33-57.12-9.3-19.11-18.52-38.26-27.58-57.49-18.11-38.46-35.7-77.17-52.65-116.17-5.99-13.78-11.9-27.6-17.76-41.44l-8.72-20.79-8.61-20.84,14.77-.24c-7.14,19.16-14.47,38.25-22,57.25-7.58,18.99-15.33,37.91-23.32,56.74-8.02,18.81-16.18,37.56-24.6,56.2-8.44,18.63-17.01,37.19-25.85,55.63-3.63,7.62-7.48,15.18-11.35,22.69-3.95,7.48-7.87,14.94-11.88,22.25-1.91,3.5-3.74,6.65-5.49,9.48-.87,1.4-1.75,2.79-2.54,3.96-.67.9-1.36,1.71-2.08,2.47-1.44,1.51-3.06,2.87-4.66,4.39-1.6,1.5-3.14,3.13-4.47,4.75-3.88,4.79-4.68,6.74-4.55,3.49.04-.82.15-1.98.35-3.57.21-1.58.53-3.62,1.12-6.05.58-2.43,1.46-5.24,2.64-8.16.29-.73.6-1.47.93-2.21.27-.62.54-1.25.81-1.89.52-1.2,1.06-2.44,1.65-3.73,5.9-12.99,12.83-26.93,19.43-40.11,15.24-30.32,29.66-61,43.18-92.04,13.53-31.04,26.29-62.4,38.12-94.1,6.58-17.48,12.93-35.85,19.78-52.68l.09-.23.17-.42c1.6-3.92,6.08-5.81,10-4.21,2.05.83,3.55,2.48,4.28,4.39,20.52,54.29,44.57,107.54,67.97,160.73,17.42,39.6,36.07,78.89,54.78,118l8.59,17.85,8.65,17.81.03.07c1.39,2.85.2,6.29-2.66,7.68-1.77.86-3.81.71-5.4-.2-27.17-15.8-57.03-27.09-87.97-33.25-30.93-6.21-62.88-7.58-94.31-3.95-7.57.81-14.98,1.97-22.27,3.15-7.26,1.31-14.4,2.62-21.33,4.22-13.89,3.08-27.11,6.6-39.59,10.32-2.9.86-4.54,1.24-5.32,1.53-.79.26-.79.26-.23-.26.52-.49,1.71-1.6,2.51-3.25.4-.81.61-1.67.87-2.28.14-.31.31-.56.58-.78.05-.08.5-.28.86-.46.37-.18.76-.36,1.16-.55,17.97-8.64,37.98-15.38,58.39-19.84,8.41-1.75,17.01-3.19,25.7-4.1,8.69-.9,17.44-1.55,26.15-1.74.05-.08.09-.15.15-.23Z"/><path d="m235.4,331.32c-7.82-.87-15.65-1.62-23.5-2.24-7.85-.59-15.71-1.06-23.58-1.4h-.19c-2.82-.13-5.01-2.51-4.89-5.33.08-1.93,1.23-3.56,2.84-4.36,4.64-2.3,9.45-4.19,14.34-5.72,11.08-3.43,22.5-4.81,33.67-5.66,10-.73,19.93-.81,29.75-.9l29.45-.28-2.58,9.53c-24.91-14.38-53.16-22.88-81.78-24.71-3.15-.2-5.54-2.92-5.33-6.06.15-2.33,1.67-4.24,3.73-5l.05-.02c9.08-3.32,18.32-6.2,27.69-8.59,14.91-3.81,30.13-6.42,45.47-7.83l-2.45,11.03c-16.15-9.34-33.56-16.53-51.6-21.3-3.19-.84-5.09-4.11-4.24-7.3.11-.43.27-.83.46-1.21l.03-.06c1.35-2.59,3.37-4.93,5.63-6.65,2.26-1.74,4.67-2.94,7-3.83,4.67-1.75,9.07-2.48,13.18-3.26,4.08-.75,7.94-1.46,11.11-2.65,1.58-.59,2.94-1.29,4.01-2.09,1.08-.81,1.87-1.7,2.49-2.79l2.79,8.34c-12.56-5.57-25.37-10.59-38.38-15.03h-.01c-3.09-1.06-4.75-4.42-3.69-7.52.48-1.41,1.45-2.52,2.64-3.21,6.83-3.95,14.1-7.1,21.64-9.39,4.67-1.41,9.48-2.42,14.33-3.05l-4.85,5.71c0-.38,0-.78-.38-1.42-.33-.63-1.02-1.37-1.87-2.07-.86-.7-1.9-1.35-3-1.92-1.25-.62-2.64-1.22-4.14-1.91-2.47-1.14-5.02-2.53-7.1-4.48-.52-.48-1-1-1.44-1.53-.21-.28-.42-.55-.62-.82-.2-.26-.43-.64-.62-.96-.76-1.32-1.2-2.63-1.37-3.85-.39-2.44.05-4.57.84-6.28.79-1.71,2.12-2.96,3.43-3.49.49-.19.9-.3,1.29-.3.38-.02.68.01.94.12.51.19.75.46.85.77.2.65-.24,1.38-.36,2.19-.08.39-.07.84-.05,1.33.02.5.08,1.13.28,1.84.19.71.52,1.5.96,2.08.1.15.23.26.34.39.13.09.19.17.42.37.38.34.83.67,1.36,1.01,1.16.75,2.71,1.43,4.53,2.13.97.37,1.94.74,2.91,1.11l1.59.65c.55.24,1.17.51,1.74.81,2.31,1.18,4.59,2.67,6.63,4.92,1.01,1.12,1.95,2.46,2.64,4.03.7,1.56,1.11,3.37,1.12,5.15v.04c.01,2.61-1.91,4.79-4.42,5.16-1.16.18-2.29.33-3.4.54-10.1,1.73-19.92,5.27-28.83,10.35l-.86-8.62c13.29,4.63,26.39,9.76,39.26,15.38,2.38,1.04,3.46,3.81,2.42,6.19-.05.13-.11.25-.18.36l-.04.06c-1.32,2.41-3.23,4.55-5.37,6.16-2.14,1.62-4.43,2.75-6.67,3.61-4.5,1.7-8.84,2.48-12.93,3.29-4.07.8-7.96,1.58-11.18,2.88-1.6.65-3,1.42-4.1,2.31-1.1.9-1.9,1.9-2.5,3.1l-3.35-7.65c2.58.64,5.16,1.31,7.72,2.03,11.97,3.35,24.25,7.8,34.92,13.58,3.99,2.15,7.92,4.4,11.8,6.75l.19.11c2.57,1.56,3.39,4.91,1.83,7.48-.95,1.56-2.59,2.48-4.28,2.61-24.01,1.64-47.81,7.06-70.5,15.22l-1.38-9.88c9.05.66,18.04,1.97,26.87,3.93,20.69,4.64,40.77,12.36,59.09,23.17l.03.02c2.19,1.29,2.92,4.12,1.62,6.31-.86,1.46-2.4,2.26-3.98,2.26-7.4-.02-14.8-.04-22.19-.06-14.09-.04-28.07-.36-41.77.8-13.66,1.17-27.15,3.98-39.11,10.05l-1.67-7.24c22.14.78,44.22,2.65,66.15,5.59,19.93,2.65,38.49,6.79,54.43,12.45,7.33,2.62,6.26,4.93-2.54,3.62-12.49-1.8-25.55-3.61-38.56-5.24-10.69-1.33-21.65-2.89-32.53-3.96-.04.05-.07.1-.11.16Z"/></svg>