<?xml version="1.0" encoding="UTF-8"?><svg id="Layer_1" xmlns="http://www.w3.org/2000/svg" viewBox="0 0 500 500"><path d="m243.55,447.63c-11.16-9.72-15.02-25.85-16.68-40.98-2.12-19.34-1.45-66.09-4.66-85.26-7.73-46.16-29.45-51.02-37.32-61.3-3.32-4.33-4.92-10.84-1.96-15.43,2.04-3.16,5.66-4.64,8.93-6.29,21.91-11.06,30.62-35.06,35.37-60.21,4.76-25.14.89-55.01,2.18-80.63.8-15.95,5.65-35.34,17.86-45.27,15.4-12.51,40.53-13.84,58.42-6.08,19.32,8.37,10.71,27.43-4.59,30.27-53.19,9.87-9.63,61.03-28.58,133.38-5.19,19.83-16.28,31.37-32.93,42.07,60.11,56.93,28.6,155.26,42.58,169.84,9.22,9.62,38.29-7.97,36.37,20.77-.83,12.41-22.38,15.57-30.24,15.93-19.56.89-33.25-.79-44.76-10.81Z"/><path d="m274.86,424.98c-1.16-1.75-1.77-3.34-2.27-4.83l-.34-1.11-.27-1.05c-.19-.71-.3-1.37-.43-2.04-.48-2.66-.69-5.11-.83-7.5-.26-4.77-.19-9.29-.11-13.77.21-8.93.59-17.64.69-26.32.23-17.31-.56-34.5-3.95-51.1-1.8-8.79-4.32-17.4-7.78-25.59-3.45-8.18-7.86-15.92-13.23-22.89-.84-1.1-1.7-2.18-2.6-3.23-.87-1.07-1.8-2.1-2.72-3.12-1.85-2.06-3.81-4-5.81-5.92-2.55-2.44-2.63-6.48-.19-9.03.34-.35.7-.66,1.09-.91l.04-.02c4.7-3.07,9.15-6.35,13.12-9.97,3.9-3.66,7.38-7.63,10.05-12.09,1.4-2.19,2.52-4.56,3.6-6.94.99-2.44,1.92-4.91,2.62-7.5l.54-1.93.5-2.04c.35-1.36.62-2.73.93-4.1.56-2.74,1.08-5.5,1.48-8.27,1.68-11.09,2.08-22.36,1.55-33.71-.5-11.37-1.98-22.74-3.25-34.57-.6-5.93-1.17-11.98-1.04-18.43.08-3.23.33-6.56,1.02-10,.34-1.72.82-3.47,1.42-5.21.64-1.74,1.37-3.49,2.34-5.17,1.89-3.36,4.52-6.44,7.51-8.77,2.98-2.37,6.22-4.11,9.43-5.4,3.22-1.3,6.44-2.21,9.61-2.91l2.28-.48c.46-.1.92-.21,1.37-.36.89-.29,1.78-.64,2.58-1.12,1.62-.92,3.04-2.18,3.98-3.56.97-1.37,1.43-2.81,1.41-3.93-.02-1.13-.32-2.08-1.23-3.21-.91-1.1-2.41-2.27-4.37-3.19-.9-.46-2.17-.91-3.32-1.36-1.16-.46-2.41-.77-3.6-1.17-1.24-.3-2.47-.63-3.73-.88-1.27-.2-2.52-.51-3.81-.62-5.12-.66-10.36-.66-15.44.03-6.65.91-13.07,3.03-18.35,6.44-.7.38-1.29.88-1.92,1.34-.62.46-1.29.91-1.78,1.41-1.1.93-2.12,2.02-3.08,3.19-1.93,2.34-3.6,5.09-5,8.08-2.78,6.01-4.53,12.84-5.51,19.8l-.33,2.62-.25,2.64-.17,2.64-.1,2.76c-.15,3.68-.16,7.42-.15,11.17.08,15.05.99,30.5.31,46.38-.08,1.98-.23,3.99-.35,5.98-.19,2.01-.34,4.01-.57,6.02-.27,2.02-.45,4.03-.83,6.05l-.51,3.04c-.17,1.01-.38,1.96-.57,2.94-1.56,7.79-3.52,15.62-6.39,23.35l-1.09,2.89-1.22,2.87c-.77,1.92-1.78,3.79-2.68,5.68-2.01,3.72-4.16,7.42-6.84,10.86-1.25,1.77-2.75,3.38-4.18,5.03-.72.83-1.55,1.56-2.33,2.34-.8.76-1.55,1.57-2.43,2.25l-2.57,2.11c-.84.72-1.8,1.29-2.71,1.94-.93.6-1.8,1.3-2.79,1.82l-2.9,1.63c-2,1.12-3.71,1.83-4.87,2.52-1.19.67-1.74,1.2-1.91,1.45-.16.23-.27.47-.33,1.14-.02.32.01.72.06,1.15.09.44.18.92.37,1.4.34.98.87,1.95,1.51,2.76l.6.67c.19.23.37.46.67.72.57.51,1,1,1.71,1.57,2.54,2.19,5.79,4.63,8.92,7.41,3.13,2.82,6.18,5.91,8.87,9.32.72.82,1.3,1.73,1.94,2.6.62.88,1.27,1.75,1.86,2.65l1.67,2.76c.54.92,1.14,1.83,1.59,2.79,3.99,7.53,6.78,15.45,8.64,23.37.56,1.98.92,3.96,1.31,5.95.37,2,.82,3.93,1.12,5.99l.44,3.1.32,3.01c.24,2.02.36,3.97.53,5.95.59,7.86.88,15.59,1.15,23.3.32,9.3.39,18.6.5,27.81.04,4.61.13,9.17.25,13.69.15,4.5.39,8.8.89,13.15,1.82,16.53,5.16,25.93,7.89,32.51.46,1.23.86,2.15,1.01,2.93.16.77.12,1.35-.14,1.71-.5.71-1.93.61-4.18-.58-2.21-1.21-5.14-3.65-7.99-7.56-2.88-3.89-5.5-9.25-7.4-15.67-2.4-8.13-3.59-16.73-4.16-25.27-.56-8.46-.73-16.83-.88-24.97-.15-9.36-.3-18.68-.63-27.93-.19-4.61-.38-9.23-.73-13.75-.15-2.28-.39-4.49-.62-6.71l-.44-3.22-.62-3.28c-1.6-8.78-4.03-17.34-7.83-25-1.82-3.89-4.17-7.39-6.73-10.69-2.58-3.3-5.61-6.19-9-9.01l-5.4-4.38-1.45-1.22-.73-.62-.75-.71c-.5-.48-1-.93-1.5-1.43l-1.5-1.7c-.5-.54-.97-1.2-1.43-1.86-.43-.66-.85-1.33-1.22-2.03-.75-1.39-1.36-2.85-1.84-4.38-.9-3.07-1.33-6.54-.45-10.24.44-1.83,1.25-3.68,2.35-5.3,1.1-1.61,2.46-2.93,3.78-3.95,2.68-2.04,5.19-3.11,7.09-4.11,3.62-1.93,6.96-4.23,9.96-6.98,5.93-5.59,10.47-12.8,13.71-20.8.86-1.97,1.55-4.05,2.29-6.1.65-2.1,1.34-4.17,1.89-6.33,1.18-4.26,2.12-8.64,2.93-13.07,3.65-19.04,1.78-40.04,1.96-60.25.02-4.03.08-8.11.19-12.2.09-2.06.12-4.1.25-6.18l.17-3.1c.05-1.03.16-2.13.24-3.19.79-8.55,2.47-17.04,5.58-25.34,1.57-4.14,3.52-8.22,6.06-12.1,2.52-3.86,5.72-7.56,9.55-10.53,3.68-2.94,7.78-5.14,11.95-6.94,4.19-1.81,8.54-3.01,12.93-3.82,2.19-.46,4.4-.66,6.61-.93,2.21-.13,4.42-.31,6.64-.25,4.42.01,8.85.39,13.21,1.25,4.36.86,8.7,2.02,12.88,3.82,2.15.89,4.45,2.04,6.6,3.56,2.15,1.54,4.25,3.47,5.93,5.95,1.68,2.47,2.87,5.49,3.24,8.6.37,3.12-.1,6.23-1.07,8.99-2.03,5.51-5.87,9.69-10.36,12.5-2.25,1.41-4.7,2.48-7.24,3.19-.63.2-1.28.32-1.92.46l-1.51.31c-.9.16-1.77.36-2.64.57-.88.19-1.7.46-2.55.68-.81.27-1.66.51-2.43.82-1.59.58-3.07,1.26-4.41,2.04-4.02,2.33-6.6,5.48-8.01,9.97-1.42,4.48-1.66,9.97-1.47,15.59.2,5.65.81,11.5,1.42,17.42.62,5.92,1.26,11.93,1.73,18,.96,12.13,1.2,24.51.02,36.85-.58,6.17-1.51,12.31-2.8,18.39-.66,3.05-1.35,6.01-2.23,9.09l-.68,2.32c-.23.77-.52,1.53-.78,2.3-.5,1.54-1.13,3.04-1.75,4.55-1.61,3.74-3.55,7.38-5.82,10.8-2.27,3.42-4.9,6.58-7.71,9.49-5.64,5.84-12.08,10.51-18.57,14.66l.85-9.01c6.65,6.4,12.55,13.6,17.5,21.38,4.95,7.78,8.92,16.12,12.02,24.7,6.22,17.2,8.93,35.25,9.9,53.07.48,8.92.53,17.83.38,26.67-.13,8.83-.51,17.63-.54,26.24,0,4.28.1,8.56.64,12.47.27,1.92.7,3.78,1.28,5.08.3.66.57,1.03.87,1.33.09.08.18.16.26.25.1.08.22.14.32.22.18.17.51.27.76.42,1.19.52,2.95.81,4.87.92,1.93.11,4.04.07,6.23.02,2.2-.04,4.5-.09,6.94.05,2.43.16,5.04.48,7.77,1.51.65.21,1.31.58,1.96.89.64.34,1.27.78,1.89,1.2,1.19.95,2.3,2.05,3.12,3.3,1.7,2.49,2.45,5.19,2.84,7.66.15,1.23.28,2.47.27,3.64.06,1.2-.04,2.33-.09,3.48,0,.51-.12,1.31-.22,2-.15.7-.3,1.42-.55,2.1-.44,1.39-1.16,2.63-1.94,3.77-1.62,2.24-3.62,3.89-5.65,5.14-2.03,1.27-4.12,2.19-6.2,2.94-4.16,1.48-8.31,2.29-12.42,2.77-2.06.24-4.1.39-6.16.43-1.05.03-2.03,0-3.02-.01-.98-.01-1.97-.02-2.95-.07-3.92-.12-7.81-.39-11.64-.94-3.82-.54-7.57-1.36-11.13-2.57-3.56-1.21-6.9-2.84-9.85-4.87-2.71-1.88-4.35-3.68-5.18-5.01-.82-1.34-.91-2.14-.38-2.41,1.14-.62,4.34,1.37,10.45,3.78,8.73,3.36,19.13,3.33,29.88,2.59l2.02-.14c.64-.05,1.2-.11,1.83-.18,1.23-.14,2.48-.33,3.72-.55,2.49-.44,4.94-1.02,7.26-1.74,2.31-.73,4.51-1.61,6.29-2.64,1.79-1.02,3.12-2.22,3.62-3.1.2-.36.3-.66.38-.95,0-.08.02-.15.04-.22,0-.08,0-.17.01-.25,0-.06.02-.04.02-.17v-.35s.02-.7.02-.7c.06-.96-.04-1.79-.05-2.67-.06-.39-.11-.77-.15-1.16-.04-.4-.16-.67-.21-1.02-.15-.63-.36-1.1-.53-1.45-.09-.17-.19-.27-.26-.41-.12-.06-.14-.22-.27-.27-.05-.04-.1-.08-.14-.13-.07-.03-.14-.07-.2-.12-.09-.11-.35-.16-.51-.28-.47-.16-1.01-.37-1.77-.49-1.47-.28-3.41-.38-5.56-.37-2.16,0-4.51.1-7.09.1-2.59-.03-5.39-.05-8.77-.86-1.64-.36-3.52-1.07-5.34-2.1-1.83-1.08-3.61-2.65-4.93-4.55-.12-.04-.22-.07-.35-.13Z"/></svg>