<?xml version="1.0" encoding="UTF-8"?><svg id="Layer_1" xmlns="http://www.w3.org/2000/svg" viewBox="0 0 500 500"><path d="m253.13,448.71c11.47-9.35,15.85-25.35,18-40.42,2.75-19.26,3.59-66.01,7.42-85.07,9.23-45.89,31.08-50.04,39.29-60.06,3.46-4.22,5.27-10.68,2.46-15.36-1.94-3.23-5.51-4.82-8.73-6.58-21.54-11.76-29.46-36.04-33.4-61.32-3.94-25.28.89-55.01.44-80.66-.28-15.97-4.5-35.51-16.39-45.82-14.99-13-40.06-15.14-58.19-7.97-19.58,7.74-11.6,27.07,3.6,30.4,52.84,11.59,7.64,61.31,24.24,134.24,4.55,19.99,15.26,31.88,31.55,43.11-61.92,54.95-33.62,154.25-48.06,168.37-9.53,9.32-38.01-9.21-37.03,19.58.42,12.43,21.87,16.29,29.7,16.9,19.53,1.52,33.26.29,45.09-9.35Z"/><path d="m209.91,415.99s.13-.2.23-.35c.05-.09.1-.23.16-.35.06-.11.12-.24.17-.4l.18-.46.17-.54c.12-.34.21-.76.32-1.17.4-1.65.69-3.58.91-5.56.44-4,.64-8.28.79-12.59.28-8.66.4-17.53.79-26.45.76-17.83,2.55-35.95,7.16-53.68,2.44-9.39,5.69-18.66,9.93-27.52,4.24-8.86,9.49-17.3,15.69-24.98.97-1.21,1.96-2.41,3-3.56,1.01-1.18,2.07-2.31,3.14-3.44,2.13-2.26,4.38-4.4,6.67-6.49l.61,9.99c-5.03-3.44-9.97-7.23-14.56-11.61-4.54-4.43-8.76-9.45-12-15.11-1.69-2.79-3.03-5.76-4.3-8.73-1.16-3.01-2.22-6.06-2.99-9.14l-.59-2.31-.5-2.24c-.35-1.49-.61-2.99-.92-4.49-.55-3.01-1.05-6.02-1.43-9.05-1.59-12.12-1.75-24.37-.94-36.4.77-12.03,2.57-23.88,4.04-35.31.71-5.7,1.32-11.33,1.32-16.6,0-5.26-.69-10.12-2.6-13.59-.49-.87-1-1.7-1.64-2.44-.29-.4-.66-.73-.98-1.1-.38-.33-.71-.7-1.13-1.01-1.58-1.31-3.51-2.46-5.71-3.39-2.19-.94-4.61-1.71-7.13-2.32l-2.01-.47c-.97-.23-1.92-.48-2.86-.81-1.87-.65-3.7-1.45-5.41-2.49-3.42-2.05-6.47-4.79-8.78-8.3-2.3-3.46-3.92-7.8-3.84-12.55.03-2.36.51-4.76,1.38-6.96.87-2.2,2.11-4.23,3.56-5.88,2.9-3.35,6.37-5.55,9.72-7.07,1.74-.81,3.25-1.29,4.85-1.87,1.58-.56,3.19-.95,4.79-1.42,1.61-.36,3.22-.73,4.84-1.02,1.62-.22,3.25-.55,4.88-.67,6.52-.67,13.09-.49,19.58.58,4.24.75,8.47,1.74,12.56,3.35,4.09,1.59,8.13,3.49,11.84,6.11.96.59,1.84,1.32,2.74,2.02.89.71,1.8,1.38,2.65,2.24,1.77,1.61,3.34,3.37,4.76,5.2,2.84,3.66,5.03,7.6,6.77,11.61,3.42,8.04,5.21,16.29,6.12,24.52l.29,3.09.2,3.1.11,3.1.02,2.99c.04,3.98-.07,7.91-.2,11.82-.58,15.6-1.92,30.78-1.74,45.56.02,1.85.1,3.67.14,5.51.11,1.81.19,3.64.34,5.44.19,1.79.29,3.61.56,5.36l.35,2.65c.12.89.3,1.82.44,2.72,1.22,7.28,2.78,14.42,5.03,21.15,4.35,13.52,11.88,25.3,23.22,31.64,1.3.83,3.12,1.64,5.24,2.96,1.06.65,2.2,1.43,3.35,2.43,1.15.99,2.31,2.22,3.29,3.67,2.03,2.93,2.99,6.53,3.04,9.69.07,3.19-.58,6.08-1.59,8.69-1.01,2.61-2.43,5-4.22,7.14l-1.34,1.45c-.45.49-.91.97-1.34,1.33-.86.76-1.79,1.63-2.6,2.24-3.37,2.69-6.34,4.75-9.02,6.99-5.28,4.42-9.62,9.36-12.99,15.32-3.38,5.91-6.02,12.48-7.88,19.42-.55,1.69-.93,3.47-1.34,5.24-.38,1.76-.87,3.55-1.17,5.27l-.46,2.58-.38,2.7c-.27,1.78-.45,3.65-.67,5.49-.8,7.41-1.36,14.99-1.87,22.59-.62,9.18-1.28,18.45-2.12,27.75-.41,4.64-.9,9.31-1.45,13.99-.57,4.68-1.31,9.52-2.3,14.19-1.9,9.01-4.89,16.4-8.49,21.81-.86,1.37-1.84,2.58-2.73,3.71-.99,1.09-1.86,2.12-2.85,2.97-.48.43-.94.85-1.4,1.23-.48.37-.96.72-1.41,1.04-.9.67-1.82,1.19-2.69,1.63-1.23.68-2.32.95-3.09,1.06-.79.09-1.32-.03-1.63-.35-.62-.64-.32-1.98.59-3.88.89-1.94,2.31-4.56,3.83-8.08,1.54-3.51,3.11-8,4.51-13.55,1.77-7.03,2.85-14.8,3.55-22.77.71-8.06,1.27-16.38,1.89-24.46.7-9.31,1.36-18.67,2.18-28.06.43-4.71.86-9.41,1.46-14.18.27-2.37.64-4.79,1.01-7.2l.67-3.69.83-3.57c2.16-9.48,5.2-18.96,10.02-27.88,2.31-4.49,5.31-8.71,8.6-12.65,3.3-3.95,7.18-7.42,11.05-10.45,3.84-3.03,7.77-5.69,9.88-8.12,1.07-1.12,1.76-2.49,2.25-3.87.44-1.37.54-2.71.32-3.56-.25-.86-.45-1.29-1.49-2.14-1.01-.83-2.78-1.73-4.99-2.9-4.58-2.51-8.92-5.61-12.74-9.21-7.59-7.31-13.01-16.37-16.71-25.64-.98-2.31-1.76-4.66-2.59-7.01-.72-2.36-1.49-4.71-2.09-7.08-1.3-4.73-2.31-9.48-3.19-14.22-.51-2.58-.9-5.34-1.31-8.07-.31-2.72-.63-5.46-.8-8.19-.39-5.45-.54-10.88-.49-16.23.08-10.71.79-21.12,1.53-31.01.3-3.95.55-7.87.73-11.78.06-1.94.17-3.9.18-5.82l.04-2.9c.01-.97-.02-1.87-.03-2.8-.2-7.42-1.29-14.86-3.48-21.7-2.2-6.82-5.59-13.03-10.43-17.08-2.5-2.19-5.48-3.93-8.6-5.42-3.13-1.5-6.52-2.57-10-3.33-1.73-.43-3.51-.64-5.28-.93-1.79-.15-3.58-.37-5.38-.37-3.6-.11-7.22.08-10.75.67-3.52.58-7.02,1.39-10.25,2.67-1.57.59-2.89,1.22-4.06,1.98-1.13.76-2.04,1.58-2.64,2.41-.6.84-.92,1.64-1.07,2.51-.13.87-.04,1.83.26,2.86.66,2.07,2.34,4.29,4.58,5.79,1.11.76,2.35,1.37,3.65,1.8.32.13.66.19.99.28l.25.07.37.09.8.19c1.06.25,2.13.53,3.2.85,1.07.28,2.14.68,3.21,1.02,1.07.41,2.14.77,3.21,1.26,2.13.9,4.26,2,6.31,3.35,3.06,1.96,5.93,4.59,8.21,7.71,1.12,1.57,2.08,3.24,2.89,4.95.76,1.72,1.4,3.48,1.86,5.23,1.82,7.04,1.62,13.67,1.19,19.92-.48,6.27-1.36,12.27-2.2,18.19-.85,5.92-1.69,11.77-2.36,17.59-1.34,11.63-1.96,23.22-1.3,34.71.32,5.74.97,11.45,1.93,17.1.49,2.8,1.04,5.69,1.7,8.38l.49,2c.17.67.39,1.31.58,1.96.36,1.32.84,2.59,1.3,3.86,1.2,3.16,2.65,6.19,4.38,9.06,1.72,2.87,3.77,5.55,6.02,8.1,4.5,5.1,10,9.53,15.86,13.65l.06.05c2.59,1.82,3.21,5.39,1.39,7.98-.26.37-.58.71-.9,1-6.24,5.5-11.83,11.72-16.62,18.55-4.79,6.83-8.75,14.25-11.97,22.03-6.45,15.58-9.84,32.48-11.55,49.59-.86,8.57-1.3,17.22-1.55,25.92-.27,8.71-.28,17.45-.66,26.39-.22,4.48-.48,8.99-1.35,13.75-.47,2.39-1.05,4.85-2.37,7.51-.66,1.3-1.66,2.78-2.99,3.95-.33.28-.66.55-.99.82-.34.25-.7.45-1.06.67-.71.47-1.44.73-2.17,1.06-2.92,1.08-5.58,1.24-8.03,1.29-2.45.03-4.73-.14-6.92-.27-2.18-.14-4.27-.27-6.22-.24-1.94.03-3.74.23-5.15.7-1.39.45-2.3,1.08-3.03,2.05-.74.96-1.3,2.35-1.65,3.97-.33,1.64-.46,3.46-.46,5.32-.03.53.03.76.03,1.09.06.3.07.61.17.91.12.6.42,1.18.74,1.77.7,1.16,1.78,2.3,3.14,3.3,1.34,1.01,2.9,1.9,4.55,2.68,3.31,1.56,6.95,2.7,10.61,3.58,1.83.43,3.69.81,5.51,1.09.89.14,1.86.25,2.81.37.95.12,1.9.24,2.85.34,3.78.43,7.52.76,11.21.87,7.36.24,14.6-.41,21.3-2.95,3.06-1.17,5.34-2.17,6.89-2.7,1.55-.54,2.46-.52,2.6.06.13.56-.46,1.76-2.03,3.39-1.57,1.62-4.2,3.67-8.1,5.49-2.75,1.3-5.66,2.28-8.59,3.01-2.94.77-5.9,1.23-8.85,1.57-5.9.64-11.74.66-17.47.44l-2.15-.09c-.75-.03-1.58-.09-2.34-.16-1.54-.14-3.06-.32-4.58-.55-3.03-.46-6.05-1.1-9.1-1.99-3.05-.91-6.13-2.04-9.23-3.77-1.55-.87-3.11-1.89-4.62-3.17-1.51-1.28-3-2.83-4.24-4.77-1.01-1.6-1.84-3.44-2.33-5.4-.11-.49-.21-.98-.3-1.48-.08-.49-.12-.99-.16-1.48-.02-.23-.05-.54-.05-.7v-.52s-.02-1.04-.02-1.04c-.05-1.36.07-2.84.17-4.29l.33-2.3c.11-.76.36-1.6.55-2.39.44-1.62,1.12-3.33,2.08-5.02.49-.84,1.1-1.68,1.72-2.47.71-.76,1.38-1.57,2.22-2.2.4-.33.82-.65,1.23-.96.43-.28.86-.54,1.3-.8.88-.55,1.75-.87,2.64-1.27,1.73-.64,3.46-1.07,5.01-1.28,3.16-.46,5.94-.41,8.48-.3,2.54.12,4.87.31,6.98.39,2.09.09,4.03.05,5.22-.22.66-.1.97-.29,1.2-.37.06-.06.16-.08.16-.12.02-.01.06,0,.03-.01,0-.02-.01.06.01-.02-.05-.05-.1-.1-.17-.16Z"/></svg>