<?xml version="1.0" encoding="UTF-8"?><svg id="Layer_1" xmlns="http://www.w3.org/2000/svg" viewBox="0 0 500 500"><path d="m340.99,80.85c8.86,4.91,17.39,10.47,25.42,16.72,8.02,6.24,15.62,13.15,22.4,20.81,13.5,15.15,24.47,32.25,33.03,50.39,9.09,19.24,15.35,39.82,18.92,60.79,1.14,7.01,1.99,14.07,2.43,21.19.39,7.12.42,14.27.02,21.43-.41,7.16-1.34,14.31-2.7,21.4-.38,1.77-.68,3.55-1.13,5.3l-1.32,5.27-1.56,5.22c-.49,1.75-1.18,3.44-1.77,5.17-.31.86-.6,1.72-.93,2.57l-1.04,2.53c-.7,1.69-1.38,3.4-2.14,4.97l-2.22,4.82c-.77,1.59-1.57,3.17-2.36,4.76l-1.19,2.38-1.26,2.34c-.85,1.56-1.67,3.13-2.54,4.67-1.79,3.06-3.54,6.15-5.47,9.14-1.85,3.04-3.89,5.95-5.87,8.91-2.09,2.88-4.14,5.8-6.37,8.58-4.37,5.63-9.03,11.06-14.03,16.19-4.98,5.13-10.2,10.05-15.74,14.61-5.54,4.56-11.32,8.82-17.33,12.75-12.02,7.86-25.01,14.25-38.51,19.17-13.53,4.87-27.59,8.18-41.84,9.97-14.25,1.74-28.67,1.93-42.95.66-35.16-3.22-69.4-15.39-98.71-35.1-14.65-9.85-28.07-21.56-39.79-34.8l-2.19-2.49-2.15-2.6c-1.45-1.72-2.81-3.52-4.17-5.32-2.72-3.59-5.21-7.35-7.61-11.16-4.72-7.67-8.73-15.77-12.04-24.12-6.66-16.7-10.24-34.44-11.38-52.17-1.06-17.75.36-35.52,3.86-52.79,7.07-34.54,22.13-67.2,43.7-95.05,13.05-16.79,29.28-31.4,47.08-42.6,8.56-5.33,16.24-8.66,22.75-10.63,3.24-1.02,6.24-1.62,8.89-2.06,2.7-.34,5.05-.56,7.17-.48,6.14.19,6.7,2.46,2.93,5.83-.47.42-1.01.86-1.62,1.32-.6.48-1.26.98-1.99,1.49-.73.51-1.52,1.04-2.38,1.59-.84.58-1.75,1.17-2.71,1.78-3.86,2.45-8.62,5.31-14.07,8.83-13.85,8.8-27.88,20.11-39.7,32.44-13.66,14.13-25.16,30.47-34.13,48.08-9.01,17.6-15.52,36.5-19.08,55.88-1.81,9.69-2.81,19.5-3.07,29.3-.18,9.8.37,19.59,1.89,29.21,2.98,19.23,9.66,37.75,20.01,53.88,2.88,4.43,6.04,8.73,9.43,12.86,3.39,4.06,7.19,8.1,10.98,11.97,7.7,7.68,15.86,14.78,24.13,21.19,6.59,5.14,13.56,9.82,20.84,14,7.29,4.17,14.88,7.83,22.7,10.96,15.63,6.28,32.14,10.45,48.9,12.28,33.52,3.79,67.98-1.77,98.25-16.24,22.55-10.67,42.59-26.66,58.55-46.14,3.96-4.89,7.76-9.93,11.27-15.18,3.47-5.27,6.83-10.63,9.82-16.22l1.15-2.08,1.09-2.11,2.17-4.23,2.04-4.3,1.02-2.15.91-2.12c.58-1.42,1.25-2.8,1.76-4.26l1.59-4.33c.93-2.94,1.91-5.87,2.64-8.87.76-2.65,1.26-5.38,1.87-8.07l.71-4.1.35-2.05.26-2.07c.81-5.5,1.12-11.08,1.34-16.65.23-11.17-.52-22.43-2.39-33.54-.85-5.57-2.11-11.08-3.42-16.57-1.45-5.46-2.96-10.91-4.84-16.24-3.61-10.72-8.18-21.12-13.49-31.1-10.69-19.9-24.55-38.3-41.82-52.62-17.29-14.44-37.65-25.32-59.11-32.74-17.16-5.88-34.51-9.61-51.38-11.39-16.89-1.78-33.31-1.59-48.88.48-1.78.26-3.37.37-4.71.5-1.34.12-2.47.16-3.37.1-1.81-.11-2.73-.56-2.69-1.29.04-.73,1.04-1.73,3.08-2.94,1.02-.6,2.29-1.28,3.85-1.87,1.56-.6,3.37-1.32,5.47-1.89,5.94-1.74,12.08-3,18.31-4.02,6.24-.93,12.59-1.52,18.98-1.77,12.78-.42,25.73.5,38.42,2.72,20.9,3.56,41.51,11.23,60.49,21.31.1-.05.19-.1.3-.15Z"/><path d="m132.56,205.34c3.1-1.56,6.22-3.09,9.29-4.7,1.62-.86,3.27-1.69,4.7-2.83,3.78-3.01,7.7-6.33,12.34-9.35,4.61-3,10.15-5.76,16.6-6.82,3.95-.6,8.02-.67,11.89-.04,3.86.61,7.5,1.73,10.86,3.13,3.38,1.4,6.43,3.11,9.31,4.91,2.88,1.8,5.57,3.73,8.11,5.69,1.54,1.18,2.62,2.93,3.61,4.64.96,1.65.31,4.19-1.12,7-2.1,4.09-5.95,7.14-8.49,6.52-1.61-.37-2.85-1.38-3.87-2.51-2.34-2.6-4.95-4.79-7.78-6.4-2.82-1.61-5.86-2.64-8.8-2.86-1.64-.15-3.25.21-4.47-.68-2-1.37-4.3-1.61-6.48-1.38-2.2.25-4.39,1.04-6.88,1.67-3.74.95-7.25,3.4-11.1,5.62-7.16,4.2-14.31,8.41-21.47,12.61-2.86,1.69-6.23,2.33-10.64.89-2.03-.67-4.35-4.11-3.67-5.72.96-2.29,2.27-4.25,3.76-5.93,1.22-1.39,2.93-2.17,4.43-3.22-.05-.08-.1-.15-.15-.24Z"/><path d="m355.68,212.8c-2.46-2.58-5.02-5.1-7.74-7.44-1.44-1.24-2.92-2.48-4.6-3.36-4.48-2.36-9.13-4.32-13.83-6.02-4.67-1.71-9.03-2.85-12.47-2.95-1.06-.03-2.03.03-2.93.18-.39.09-.65.19-1,.25-.43.19-.84.32-1.3.49-1.9.8-4.2,2.22-6.45,3.86-4.55,3.3-9.1,7.5-13.38,11.94-1.29,1.35-3.09,2.27-4.86,3.21-1.7.89-4.24.25-7.08-1.17-4.15-2.05-7.14-5.97-6.15-8.85.62-1.81,1.92-3.27,3.37-4.43,3.34-2.68,6.48-5.5,9.59-8.46,3.12-2.96,6.16-6.08,9.62-9.33,1.01-.88,1.91-1.88,3.11-2.69.58-.41,1.17-.79,1.79-1.11.67-.31,1.37-.54,2.09-.7,1.09-.26,2.36-.48,3.56-.71l.9-.18c.31-.06.66-.09.98-.14l1.98-.26c2.5-.25,4.81-.25,7.1-.1,4.55.32,8.73,1.33,12.3,3.02,2.53,1.21,5.06,2.43,7.6,3.64,2.45,1.19,4.89,2.43,7.2,3.86,8.26,5.09,15.82,11.12,22.74,17.68,2.76,2.61,4.52,6.08,4.19,10.9-.15,2.21-3.13,5.1-4.89,4.72-2.51-.57-4.77-1.45-6.82-2.53-1.69-.88-2.94-2.35-4.42-3.51-.06.07-.12.14-.19.21Z"/><path d="m341.03,308.45c-5.15,6.88-10.99,13.24-17.44,18.95-1.74,1.49-3.5,2.95-5.27,4.39l-2.71,2.11-1.33,1.08-1.37,1.04c-4.76,3.83-10,7.13-15.49,9.98-5.49,2.87-11.33,5.17-17.32,6.8-11.98,3.3-24.52,4.21-36.76,2.96-7.54-.79-14.97-2.37-22.18-4.65-7.23-2.28-14.16-5.27-20.76-8.8-13.23-7.05-25-16.29-35.38-26.63-3.16-3.11-5.66-6.88-7.99-10.58-2.2-3.58-2.04-7.16-.64-10.32,1.02-2.31,2.86-3.73,4.96-4.16,2.12-.44,4.43.15,6.61,1.8,1.37,1.06,2.66,2.28,3.91,3.55,1.22,1.3,2.41,2.64,3.52,3.99,5.1,6.24,10.99,11.76,17.41,16.5,6.47,4.65,13.46,8.53,20.84,11.15,4.07,1.52,8.41,2.45,12.09,4.37,5.93,3.04,12.48,4.74,19.07,5.59,6.61.87,13.26.8,19.85.55,4.9-.2,9.8-.97,14.51-2.31,4.72-1.31,9.25-3.15,13.7-5.22,7.86-3.83,15.27-8.91,21.78-15.15,3.32-3.05,6.34-6.46,9.26-9.95,1.39-1.81,2.86-3.56,4.14-5.46.66-.94,1.34-1.86,1.98-2.82l1.87-2.9c3.93-6.22,8.09-11.84,13.86-16.48,2.68-2.12,6.53-.6,6.07,3.11-.59,5.23-2.11,10.52-4.16,15.57-.88,2.06-1.89,4.09-3.12,6.01l-1.81,2.9c-.64.95-1.27,1.9-1.91,2.84.07.06.14.12.21.19Z"/></svg>