<?xml version="1.0" encoding="UTF-8"?><svg id="Layer_1" xmlns="http://www.w3.org/2000/svg" viewBox="0 0 500 500"><path d="m211.9,261.65l5.53,3.11c1.85,1.03,3.79,1.9,5.67,2.86l2.85,1.41c.96.45,1.94.85,2.91,1.28l5.85,2.52c3.99,1.44,7.92,3.08,12,4.24l3.04.95c1.01.33,2.02.64,3.05.88l6.16,1.57c1.02.29,2.06.47,3.1.68l3.11.61,3.11.61c1.04.2,2.09.3,3.13.45,2.09.27,4.18.58,6.28.83l6.3.45c2.14.19,4.09.21,6.13.17,2.03-.03,4.05-.17,6.08-.37,4.05-.42,8.08-1.16,12.01-2.2,8.32-2.25,16.33-5.89,22.83-11.11,3.26-2.59,6.07-5.6,8.33-8.91,2.2-3.34,3.85-6.96,4.69-10.8.12-.53.26-1.06.33-1.61l.26-1.62.03-.18c.55-3.43,3.77-5.77,7.21-5.22,1.51.24,2.81,1.01,3.75,2.07,5.11,5.85,12.68,9.38,20.76,10.31,8.07.96,16.59-.54,23.88-4.15,3.64-1.81,6.98-4.14,9.79-6.92,1.43-1.37,2.64-2.91,3.82-4.58l.9-1.22c.28-.42.52-.87.78-1.31.5-.89,1.07-1.72,1.52-2.64,1.87-3.62,3.15-7.56,4.04-11.59.86-4.06,1.09-8.26,1-12.44-.14-4.2-.86-8.37-1.88-12.45-1.08-4.07-2.68-7.97-4.57-11.7-1.96-3.7-4.36-7.05-7.1-10.29-2.79-3.18-5.92-6.05-9.27-8.69-13.57-10.39-31.14-15.76-48.52-16.06-4.15-.07-7.46-3.5-7.39-7.65.04-2.33,1.13-4.39,2.81-5.74l.12-.1c3.09-2.46,5.23-6,6.11-10.28.47-2.12.59-4.39.49-6.67-.15-2.29-.54-4.6-1.21-6.83-1.34-4.47-3.69-8.65-6.79-11.79l-.58-.59-.68-.59-1.34-1.19-1.44-1.09c-.47-.37-.96-.73-1.48-1.04l-1.53-.99c-.53-.31-1.07-.59-1.61-.89-1.05-.63-2.22-1.09-3.33-1.64-7-3.06-15.02-4.5-23.2-4.84-4.08-.16-8.29-.08-12.37.28-4.09.34-8.17.92-12.14,1.84-1,.21-1.99.43-2.96.72-.97.27-1.96.52-2.93.81-1.91.63-3.84,1.23-5.66,2.01-3.69,1.48-7.24,3.23-10.38,5.39-.4.27-.82.51-1.2.79l-1.12.87c-.73.59-1.54,1.11-2.18,1.77l-2.04,1.88-1.83,2.03c-2.32,2.78-4.15,5.85-5.5,9.14l-.05.11c-1.66,4.07-6.31,6.01-10.38,4.35-.8-.33-1.54-.79-2.17-1.33-3.66-3.14-7.37-6.19-11.15-9.11-3.8-2.89-7.67-5.66-11.62-8.26-3.97-2.56-8.01-4.98-12.15-7.15-4.15-2.14-8.37-4.09-12.68-5.74-4.32-1.6-8.7-2.98-13.14-3.99-4.48-.97-8.86-1.64-13.34-1.87-4.47-.16-8.97-.05-13.4.55-4.42.65-8.81,1.54-13,2.97-1.07.29-2.07.77-3.11,1.14l-1.54.59c-.51.2-.99.46-1.49.69-.98.48-2,.9-2.96,1.41l-2.85,1.6c-3.69,2.27-7.18,4.83-10.18,7.85-.78.73-1.43,1.57-2.15,2.34l-1.06,1.18-.94,1.28c-.6.85-1.32,1.69-1.84,2.54l-.81,1.28-.74,1.33c-1.92,3.59-3.27,7.56-4.02,11.68-1.51,8.24-.64,17.09,2.52,24.72,3.14,7.65,8.69,13.9,15.76,16.99,3.98,1.74,5.8,6.39,4.06,10.37-.93,2.13-2.7,3.65-4.75,4.32l-.12.04c-3.47,1.13-6.84,2.64-10.03,4.47-.78.49-1.61.9-2.36,1.44l-2.29,1.55-2.18,1.7c-.74.55-1.39,1.21-2.09,1.8-5.97,5.41-10.75,12.14-13.37,19.55l-.88,2.8-.65,2.86c-.18.95-.26,1.89-.41,2.84-.15.95-.11,1.92-.18,2.88-.09,3.86.44,7.8,1.52,11.58.48,1.83,1.16,3.5,1.75,5.14.35.79.7,1.57,1.04,2.33.3.78.75,1.45,1.1,2.17.68,1.45,1.55,2.68,2.26,3.96.39.61.82,1.17,1.2,1.75.4.57.75,1.17,1.18,1.65,3.19,4.21,6.29,7.2,8.89,9.67,3.91,3.3,3.88,5.24-1.29,5.05-1.28-.05-2.78-.45-4.62-.94-.88-.3-1.81-.7-2.82-1.13-.49-.23-1.04-.43-1.54-.71-.5-.29-1.02-.59-1.55-.9-4.26-2.5-8.99-6.61-12.94-12.57-2.46-3.78-4.54-7.95-5.96-12.44-1.4-4.49-2.23-9.24-2.36-14.08l.04-3.65c.11-1.22.24-2.43.37-3.65.05-.61.15-1.21.28-1.8l.35-1.77c.12-.59.22-1.18.37-1.76l.49-1.73c1.31-4.6,3.19-8.99,5.59-12.94,2.09-3.46,4.43-6.75,7.13-9.69,1.29-1.53,2.77-2.87,4.16-4.28,1.51-1.29,2.95-2.67,4.55-3.83,6.24-4.89,13.36-8.56,20.91-10.98l-.66,12c-8.23-3.71-15.07-10.13-19.51-17.62-4.53-7.48-6.95-15.89-7.65-24.35-.7-8.47.44-17.08,3.45-25.15,1.5-4.01,3.56-7.94,6.07-11.43,1.27-1.7,2.46-3.47,3.93-5.01l2.11-2.38c.75-.75,1.52-1.46,2.29-2.19,6.16-5.78,13.37-10.32,21.04-13.46,7.66-3.18,15.74-5.14,23.91-6,1.02-.14,2.04-.21,3.07-.26l3.08-.18c2.05-.07,4.11-.02,6.17-.02,2.05.15,4.11.2,6.16.44l3.07.38,1.54.2,1.5.27c8.04,1.39,15.87,3.71,23.36,6.71,18.08,7.3,34.63,18.68,48.47,30.95l-12.53,3.12c.6-1.32,1.2-2.61,1.81-3.88.28-.65.65-1.25,1.02-1.84.37-.59.73-1.19,1.09-1.78,4.5-7.2,10.92-12.71,17.68-16.86,6.8-4.19,14.12-6.92,21.51-8.86,7.39-1.92,14.93-2.99,22.47-3.27,3.74-.16,7.51-.15,11.3.08,3.78.22,7.59.62,11.38,1.34,7.58,1.36,15.19,3.87,22.17,7.98,3.47,2.1,6.71,4.57,9.71,7.45,3.07,3.03,5.58,6.5,7.51,10.22,3.86,7.43,5.69,15.8,4.92,24.34-.43,4.25-1.52,8.56-3.57,12.56-1.99,4.02-5,7.64-8.59,10.43l-3.98-12.06c8.51.26,16.95,1.54,25.12,3.84,12.3,3.55,24.1,9.44,34.03,17.93,4.96,4.25,9.41,9.1,13.15,14.57,3.75,5.5,6.62,11.52,8.61,17.81,3.97,12.55,4.46,26.29.6,39.16-1.93,6.41-5,12.57-9.17,17.93-2,2.74-4.49,5.25-7.1,7.45-2.63,2.2-5.48,4.11-8.47,5.71-9.76,5.22-20.9,7.37-31.86,6.21-2.74-.28-5.47-.81-8.15-1.56-2.68-.74-5.31-1.71-7.84-2.96-2.52-1.24-4.96-2.69-7.21-4.42-2.25-1.73-4.33-3.69-6.21-5.82l9.88-2.99c-.65,4.68-2.05,9.28-4.11,13.52-2.05,4.26-4.82,8.08-7.93,11.47-3.12,3.4-6.66,6.3-10.39,8.81-3.74,2.5-7.68,4.62-11.75,6.36-8.15,3.46-16.74,5.6-25.46,6.48-2.18.2-4.37.36-6.57.4-1.1.03-2.2.04-3.3.01-1.11,0-2.18-.07-3.24-.14l-6.4-.42c-1.07-.04-2.12-.22-3.18-.34l-3.17-.41c-4.25-.44-8.4-1.39-12.59-2.15-2.08-.42-4.13-1-6.19-1.49-2.06-.51-4.13-.99-6.14-1.66l-6.08-1.87c-2.02-.64-3.99-1.43-5.99-2.14-4.01-1.37-7.87-3.14-11.77-4.77-7.68-3.56-15.25-7.4-22.37-12-3.65-2.16-7.05-4.71-10.53-7.14-1.72-1.25-3.34-2.62-5.02-3.93l-2.49-1.98c-.82-.67-1.59-1.41-2.39-2.12-8.17-7.17-15.41-15.24-21.02-24.08l7.16-2.32c.02,3.18-.37,6.37-1.22,9.42-.85,3.05-2.16,5.94-3.83,8.53-3.38,5.18-8.05,9.05-12.98,11.82-4.96,2.75-10.23,4.46-15.45,5.37-5.22.89-10.44,1.03-15.37.32-3.29-.47-5.57-1.38-6.9-2.18-1.31-.87-1.72-1.56-1.35-2.02.77-1,4.3-.71,11.11-1.2,8.79-.72,17.85-3.84,24.68-9.06,3.37-2.63,6.16-5.76,7.84-9.27.85-1.75,1.48-3.57,1.83-5.46.34-1.9.43-3.86.34-5.86-.18-4.06,2.96-7.49,7.02-7.67,2.48-.11,4.73,1.02,6.15,2.85l.35.46c1.09,1.43,2.19,2.87,3.29,4.31,5.35,6.74,11.58,13.04,18.39,18.82,6.89,5.71,14.37,10.82,22.16,15.33.08-.04.16-.08.25-.12Z"/><path d="m180.4,310.35c9.7,2.23,18.33,7.22,25.32,13.51,1.87,1.68,3.62,3.46,5.31,5.37,1.95,2.22,3.52,4.66,4.77,7.26.84,1.73,1.5,3.56,1.95,5.48.47,1.91.72,3.92.69,5.99.02,1.03-.11,2.08-.23,3.13-.2,1.05-.38,2.11-.73,3.15-.29,1.05-.76,2.06-1.21,3.07-.52.98-1.07,1.96-1.71,2.83-2.57,3.58-6.05,6.05-9.42,7.7-3.39,1.67-6.82,2.68-10.09,3.38-13.04,2.87-26.89,1.87-39.48-3.07-3.36-1.34-6.76-3.03-10.04-5.57-1.63-1.28-3.22-2.78-4.63-4.58-1.41-1.79-2.64-3.9-3.47-6.19l8.71,5.11c-6.88,1.14-13.91.75-20.58-1.01-3.34-.87-6.58-2.11-9.68-3.68-1.54-.79-3.06-1.64-4.51-2.6l-1.16-.77c-.65-.46-1.23-.95-1.75-1.44-1.04-.99-1.83-2-2.49-2.98-1.26-1.92-2.17-3.9-2.86-6.05-.62-2.15-.98-4.38-.97-6.61.02-2.22.31-4.43.96-6.52.6-2.11,1.54-4.1,2.68-5.94,1.14-1.85,2.59-3.49,4.17-4.97,1.63-1.42,3.41-2.71,5.36-3.64l.73-.36c.25-.13.49-.23.67-.31l1.22-.5c.82-.33,1.67-.62,2.52-.9,1.73-.53,3.5-1.02,5.38-1.3,2.85-.46,5.91-.43,8.9.18,2.98.61,5.88,1.76,8.34,3.35,2.36,1.51,3.82,3.34,4.57,5.08.18.44.33.87.44,1.3.06.21.11.42.15.63l.06.31.02.15s-.03.06-.05.1c-.3.5-.56,1.2-.68,2-.33,2.38.22,4.51-1.86,4.91-.51.09-1.17.05-1.96-.19-.39-.12-.81-.28-1.25-.5-.26-.16-.31-.08-.45-.12-.12-.01-.24-.03-.37-.04-.49-.07-.98-.18-1.47-.35-.51-.11-1.01-.28-1.5-.51-1.29-.44-2.48-.95-3.73-1.26-1.24-.32-2.51-.58-3.85-.72-1.54-.15-3.21-.02-4.92.34-.86.19-1.72.42-2.59.71-.43.14-.87.32-1.3.47-.42.16-.64.3-.98.44-2.43,1.19-4.31,3.58-4.83,6.21-.27,1.31-.23,2.63.11,3.85.17.61.41,1.2.72,1.75.31.56.69,1.13.97,1.35.14.12.24.18.27.17h.01s0,0-.04.05l-.02.03h0c.13-.18.04-.04.07-.08l.04.02.3.17.61.35c.4.24.82.44,1.23.65.41.21.83.42,1.26.6,1.7.76,3.46,1.37,5.27,1.79,4.01.97,8.2.98,12.07,1.35,1.42.16,2.83.12,4.26.04l1.83-.1c3.03-.16,5.65,1.94,6.23,4.83.32,1.57,1.5,3.28,3.48,4.81,1.97,1.53,4.52,2.78,7.37,3.81,5.69,2.11,11.75,3.17,17.83,3.6,2.55.18,5.13.14,7.69-.1,2.53-.25,5.17-.68,7.48-1.3,2.33-.63,4.46-1.49,6.11-2.56,1.66-1.07,2.84-2.32,3.52-3.74,1.35-2.5,1.2-6.43-.34-9.89-.18-.44-.42-.85-.62-1.28-.26-.4-.46-.83-.74-1.21-.26-.39-.53-.78-.84-1.13-.25-.34-.67-.8-1.05-1.21-1.55-1.68-3.24-3.26-5.03-4.72-7.15-5.87-15.96-9.64-25.19-10.04-7.37-.34-14.41.33-21.87.32-1.64-.07-1.72-.9-1.43-2,.14-.56.34-1.23.42-1.89.09-.65-.02-1.28-.09-1.53v-.06s-.03-.01,0-.04l.11-.07.46-.28.92-.56c.63-.36,1.24-.75,1.9-1.07,1.31-.66,2.64-1.33,4.05-1.86,2.79-1.15,5.78-1.99,8.84-2.53,2.52-.48,5.15-.55,7.77-.46,2.63.12,5.25.5,7.82.96.03-.07.06-.13.09-.21Z"/><path d="m84.52,393.67c4.38-.29,8.55.24,12.51,1.21,2.1.52,4.14,1.2,6.24,1.78,2.81.82,5.73,1.85,8.66,3.91,1.45,1.03,2.9,2.3,4.16,4.01,1.25,1.69,2.28,3.85,2.68,6.23.42,2.37.19,4.86-.51,7.01-.69,2.16-1.77,4.01-3,5.55-2.47,3.1-5.46,5.06-8.45,6.49-1.85.86-3.73,1.49-5.61,1.97-.94.24-1.88.42-2.81.58-1.01.18-2.18.29-3.23.32-1.06.04-2.14,0-3.11-.08-.85-.07-1.69-.15-2.54-.25-1.7-.2-3.4-.48-5.12-.84-3.43-.73-6.91-1.79-10.38-3.53-.86-.43-1.73-.91-2.58-1.44-.43-.27-.85-.53-1.27-.83l-.63-.45-.31-.22-.44-.36c-2.35-1.9-4.2-4.58-5.06-7.49-1.12-3.54-.25-7.4,1.57-10.22.88-1.37,2.14-2.14,3.39-2.35.64-.1,1.26-.08,1.87.05.62.14,1.21.39,1.78.71,1.64.94,2.64,2.53,3.45,3.86.79,1.34,1.49,2.33,1.8,2.69.42.49.4.5.2.73-.24.25-.29.56-.16.85.02.04.05.06.07.1.02.02,0,.03.05.07l.19.15c.25.2.5.4.79.57.54.37,1.16.69,1.8.98,2.58,1.16,5.72,1.65,8.9,1.53.88-.03,1.79-.14,2.67-.18.44,0,.89-.02,1.32.04.35.04.63.11.93.24.47.2.93.34,1.37.41.19.04.53.03.82.03.3,0,.6,0,.89-.05,1.17-.11,2.29-.41,3.28-.83,2-.82,3.46-2.13,4.23-2.91.31-.29.47-.55.55-.73.07-.19.1-.31.04-.54-.09-.43-.69-1.35-1.92-2.26-2.12-1.68-5.67-3.05-9.12-3.76-3.49-.73-7.11-.87-10.53-.19-2.73.56-5.36.57-9.35-.15-1.84-.35-4.04-2.84-2.98-4.55.7-1.23,1.66-2.26,2.68-3.28,1.07-.93,2.23-1.83,3.5-2.5,1.03-.62,2.16-.93,3.3-1.25,1.14-.25,2.31-.46,3.44-.63,0-.08,0-.15-.02-.22Z"/></svg>